# Blender v2.78 (sub 0) OBJ File: ''
# www.blender.org
mtllib plant4.mtl
o Plane
v -1.292800 0.000000 0.894878
v 1.292800 0.000000 0.894878
v -0.689080 0.000000 -0.894878
v 0.764001 -0.000000 -0.904243
v -0.011436 0.000000 0.894878
v -0.018109 0.000000 -0.894878
v 1.390105 0.000000 -4.957404
v 0.785572 0.000000 -4.994623
v -0.998849 0.000000 -2.746758
v -0.327879 0.000000 -2.746758
v -1.464514 0.000000 -4.221364
v -0.793543 0.000000 -4.221364
v 0.273535 0.000000 -9.237587
v -0.275169 0.000000 -9.237587
v 1.210364 0.000000 -5.646410
v 1.390105 0.000000 -4.957404
v 1.210364 0.000000 -5.646410
v 2.301305 0.000000 -8.523382
v 1.936799 0.000000 -8.556536
v -1.456015 0.000000 -4.194452
v -0.514707 0.000000 -3.716774
v -0.156165 0.000000 -5.959512
v 0.440955 0.000000 -5.855189
v -2.232455 0.000000 -6.497092
v -1.561485 0.000000 -6.497092
v -2.223957 0.000000 -6.470181
v -1.488079 0.000020 -10.926163
v -0.817109 0.000020 -10.926163
v -1.479580 0.000020 -10.899252
v 4.273911 0.000000 -11.277586
v 3.909405 0.000000 -11.310740
v 2.175981 0.000000 -8.890488
v 1.067253 -0.000001 -11.767948
v 1.469744 -0.000001 -11.685894
v 0.273535 0.000000 -9.237587
v -0.275169 0.000000 -9.237587
v 1.067253 -0.000001 -11.767948
v 1.469744 -0.000001 -11.685894
v 1.026888 0.000002 -12.750592
v 0.478184 0.000002 -12.750592
v 0.664118 0.000000 -1.483143
v 2.674462 -0.000014 -4.828918
v 2.068927 -0.000014 -4.750916
v 2.567543 -0.000014 -6.937304
v 2.238381 -0.000014 -6.894902
vt 0.4937 0.4956
vt 0.5053 0.5000
vt 0.4937 0.5040
vt 0.3517 0.2096
vt 0.3446 0.2098
vt 0.3529 0.2082
vt 0.5054 0.4906
vt 0.5053 0.4957
vt 0.3529 0.2068
vt 0.3492 0.2076
vt 0.3492 0.2062
vt 0.3472 0.2072
vt 0.3462 0.2053
vt 0.3433 0.2107
vt 0.3360 0.2077
vt 0.3447 0.2110
vt 0.3433 0.2107
vt 0.3375 0.2129
vt 0.3374 0.2122
vt 0.3462 0.2066
vt 0.3429 0.2091
vt 0.3427 0.2079
vt 0.3462 0.2052
vt 0.3437 0.2043
vt 0.3417 0.2051
vt 0.3422 0.2038
vt 0.3308 0.1975
vt 0.3302 0.1974
vt 0.3367 0.2126
vt 0.3309 0.2104
vt 0.3319 0.2169
vt 0.3318 0.2162
vt 0.3311 0.2112
vt 0.3309 0.2104
vt 0.3360 0.2088
vt 0.3360 0.2077
vt 0.3360 0.2088
vt 0.3289 0.2092
vt 0.3450 0.2136
vt 0.3451 0.2124
vt 0.3529 0.2098
vt 0.3408 0.2127
vt 0.4937 0.4871
vt 0.3447 0.2111
vt 0.3290 0.1992
vt 0.3311 0.2112
vt 0.3289 0.2103
vt 0.3407 0.2134
vn 0.0000 1.0000 0.0000
vn 0.0000 0.0000 1.0000
vn 0.0000 -1.0000 -0.0000
usemtl None
s off
f 5/1/1 3/2/1 1/3/1
f 41/4/1 8/5/1 6/6/1
f 5/1/1 4/7/1 6/8/1
f 3/9/1 10/10/1 9/11/1
f 9/11/1 21/12/1 20/13/1
f 15/14/1 14/15/1 8/5/1
f 7/16/2 17/17/2 15/14/2
f 15/14/1 8/5/1 7/16/1
f 17/17/1 18/18/1 19/19/1
f 12/20/1 23/21/1 22/22/1
f 20/13/1 12/20/1 11/23/1
f 11/23/1 26/24/1 20/13/1
f 11/23/1 25/25/1 24/26/1
f 24/26/3 29/27/3 26/24/3
f 25/25/1 27/28/1 24/26/1
f 19/19/1 18/18/1 32/29/1
f 32/29/1 33/30/1 19/19/1
f 32/29/1 30/31/1 31/32/1
f 34/33/2 37/34/2 33/30/2
f 13/35/2 36/36/2 14/15/2
f 35/37/1 40/38/1 36/36/1
f 41/4/1 42/39/1 43/40/1
f 41/4/1 6/6/1 4/41/1
f 42/39/1 45/42/1 43/40/1
f 5/1/1 6/8/1 3/2/1
f 41/4/1 7/16/1 8/5/1
f 5/1/1 2/43/1 4/7/1
f 3/9/1 6/6/1 10/10/1
f 9/11/1 10/10/1 21/12/1
f 15/14/1 13/35/1 14/15/1
f 7/16/2 16/44/2 17/17/2
f 17/17/1 16/44/1 18/18/1
f 12/20/1 21/12/1 23/21/1
f 20/13/1 21/12/1 12/20/1
f 11/23/1 24/26/1 26/24/1
f 11/23/1 12/20/1 25/25/1
f 24/26/3 27/28/3 29/27/3
f 25/25/1 28/45/1 27/28/1
f 32/29/1 34/33/1 33/30/1
f 32/29/1 18/18/1 30/31/1
f 34/33/2 38/46/2 37/34/2
f 13/35/2 35/37/2 36/36/2
f 35/37/1 39/47/1 40/38/1
f 41/4/1 4/41/1 42/39/1
f 42/39/1 44/48/1 45/42/1
