# Blender v2.78 (sub 0) OBJ File: 'plant1.blend'
# www.blender.org
mtllib plant1.mtl
o Plane
v -0.185725 0.000000 5.809228
v -0.225097 0.000000 5.303211
v 0.313810 0.000000 5.506883
v 0.750188 -0.000000 3.243773
v -0.696753 0.000000 5.790595
v 0.620861 -0.000000 4.748493
v 0.508463 -0.000000 5.270415
v -0.029454 0.000000 5.304379
v -0.397077 0.000000 5.422070
v -0.125524 0.000000 4.705359
v -0.035128 0.000000 4.793509
v -0.134960 0.000000 3.913360
v -0.011247 0.000000 3.888116
v -0.431100 0.000000 2.703516
v -0.307388 0.000000 2.678273
v -0.546667 0.000000 1.486451
v -0.422955 0.000000 1.461207
v -0.730853 0.000000 0.161040
v -0.607140 0.000000 0.135797
v -0.638228 0.000000 -1.432985
v -0.592154 0.000000 -1.433827
v -0.021832 0.000000 4.289413
v -0.105158 0.000000 3.504457
v -0.258584 0.000000 2.877655
v -0.300991 0.000000 3.235060
v -0.031904 0.000000 5.083741
v -0.618041 0.000000 0.972844
v -0.351350 0.000000 2.215297
v -0.512284 0.000000 1.848550
v -0.556564 0.000000 0.499746
v -0.493711 0.000000 0.952037
v -0.445677 0.000000 1.107514
v -0.532470 0.000000 1.187056
v -0.361291 0.000000 0.533709
v -0.243870 0.000000 0.540212
v -0.375921 0.000000 0.027935
v -0.258499 0.000000 0.034439
v -0.179463 0.000000 -0.611596
v -0.062042 0.000000 -0.605092
v -0.237983 0.000000 -1.334727
v -0.120561 0.000000 -1.524230
v -0.396370 0.000000 2.845404
v -0.639262 0.000000 2.485323
v -0.684786 0.000000 2.624703
v -0.639262 0.000000 2.485323
v -0.724913 0.000000 2.569528
v -0.801420 0.000000 1.617567
v -0.817217 0.000000 1.621517
v 0.415740 0.000000 5.700970
v 0.623794 -0.000000 4.107507
v 0.761839 -0.000000 4.093864
v 0.605769 -0.000000 2.792329
v 0.743814 -0.000000 2.778687
v 1.036104 -0.000000 1.019699
v 1.102874 -0.000000 1.179790
v 0.879608 -0.000000 2.219326
v 0.801937 -0.000000 1.984274
v 0.758462 -0.000000 2.163357
v 0.539821 -0.000000 1.700738
v 0.431792 -0.000000 1.712115
v 0.630020 -0.000000 0.340868
v 0.578408 -0.000000 0.165148
v -0.133852 0.000000 3.898159
v -0.055723 0.000000 3.706415
v -0.136868 0.000000 3.905562
v 0.030653 -0.000000 2.613518
v 0.135048 -0.000000 2.605615
v -0.006610 0.000001 1.724107
v 0.026510 0.000001 1.716205
v 0.544053 -0.000000 4.467485
v 0.414687 -0.000000 5.051486
v 0.412764 -0.000000 5.060167
v 0.618572 -0.000000 3.726475
v -0.691243 0.000000 -0.520621
v -0.604125 0.000000 -0.180028
v -0.596898 0.000000 -0.936962
v -0.369677 0.000000 0.243783
v -0.254172 0.000000 -0.368395
v -0.198952 0.000000 -0.852423
v -0.092983 0.000000 -1.091077
v 0.586688 -0.000000 0.994145
v 0.962669 -0.000000 1.832588
v 0.896668 -0.000000 1.594061
v 0.627733 -0.000000 1.982776
v 0.529061 -0.000000 0.685814
v 0.656417 -0.000000 1.826862
v 0.646180 -0.000000 1.815789
v 0.692654 -0.000000 2.434433
v -0.021201 -0.000000 2.953687
v -0.022114 -0.000000 2.959682
v 0.022701 -0.000000 3.253889
v 0.376719 0.000000 5.786680
v 0.459021 0.000000 5.783381
v 0.291377 0.000000 5.790102
v 0.180297 0.000000 5.794555
v -0.185725 0.000000 5.956629
v -0.696753 0.000000 5.937995
v 0.376719 0.000000 5.934081
v 0.459021 0.000000 5.930781
v 0.291377 0.000000 5.937502
v 0.180297 0.000000 5.941955
vt 0.5089 0.4947
vt 0.5040 0.4958
vt 0.5041 0.4939
vt 0.5054 0.4924
vt 0.5092 0.4898
vt 0.4936 0.1572
vt 0.4957 0.1556
vt 0.4991 0.1567
vt 0.5085 0.4982
vt 0.4983 0.1558
vt 0.5029 0.1561
vt 0.5062 0.1574
vt 0.5064 0.1574
vt 0.5063 0.1574
vt 0.5147 0.1599
vt 0.5182 0.1595
vt 0.5208 0.1608
vt 0.5234 0.1611
vt 0.5236 0.1602
vt 0.5255 0.1611
vt 0.5270 0.1618
vt 0.5327 0.1629
vt 0.5352 0.1621
vt 0.5376 0.1628
vt 0.5272 0.1609
vt 0.5302 0.1593
vt 0.5302 0.1601
vt 0.4937 0.1554
vt 0.5065 0.1563
vt 0.5110 0.1588
vt 0.5091 0.1573
vt 0.5136 0.1586
vt 0.5150 0.1590
vt 0.5137 0.1596
vt 0.5079 0.1569
vt 0.5261 0.1605
vt 0.5304 0.1615
vt 0.5329 0.1620
vt 0.5322 0.1603
vt 0.5338 0.1604
vt 0.5338 0.1595
vt 0.5366 0.1596
vt 0.5384 0.1592
vt 0.5384 0.1584
vt 0.5401 0.1594
vt 0.5152 0.1617
vt 0.5162 0.1614
vt 0.5162 0.1615
vt 0.5156 0.1620
vt 0.5223 0.1630
vt 0.5223 0.1631
vt 0.4922 0.1521
vt 0.4945 0.1506
vt 0.4963 0.1516
vt 0.5050 0.1504
vt 0.5052 0.1492
vt 0.5085 0.1507
vt 0.5169 0.1515
vt 0.5171 0.1503
vt 0.5202 0.1510
vt 0.5226 0.1506
vt 0.5243 0.1504
vt 0.5242 0.1520
vt 0.5222 0.1495
vt 0.5258 0.1491
vt 0.5265 0.1539
vt 0.5331 0.1531
vt 0.5358 0.1538
vt 0.5108 0.1566
vt 0.5127 0.1571
vt 0.5151 0.1569
vt 0.5152 0.1562
vt 0.5209 0.1575
vt 0.5129 0.1499
vt 0.4992 0.1499
vt 0.4964 0.1516
vt 0.5017 0.1509
vt 0.4905 0.1511
vt 0.5406 0.1623
vt 0.5441 0.1624
vt 0.5441 0.1627
vt 0.5418 0.1587
vt 0.5449 0.1591
vt 0.5435 0.1598
vt 0.5390 0.1532
vt 0.5405 0.1538
vt 0.5267 0.1530
vt 0.5256 0.1518
vt 0.5257 0.1519
vt 0.5318 0.1483
vt 0.5279 0.1498
vt 0.5332 0.1490
vt 0.5210 0.1573
vt 0.5128 0.1571
vt 0.5083 0.5001
vt 0.5082 0.5009
vt 0.5074 0.5004
vt 0.5084 0.4993
vt 0.5057 0.4993
vt 0.4985 0.4825
vt 0.4968 0.4824
vt 0.4968 0.4801
vt 0.4985 0.4802
vt 0.4998 0.4825
vt 0.4998 0.4802
vt 0.4912 0.4822
vt 0.4833 0.4825
vt 0.4833 0.4802
vt 0.4912 0.4799
vt 0.5011 0.4826
vt 0.5011 0.4803
vn 0.0000 1.0000 0.0000
usemtl Material.001
s off
f 1/1/1 8/2/1 2/3/1
f 1/1/1 9/4/1 5/5/1
f 2/6/1 26/7/1 10/8/1
f 8/2/1 1/1/1 95/9/1
f 9/4/1 1/1/1 2/3/1
f 10/8/1 11/10/1 22/11/1
f 12/12/1 63/13/1 65/14/1
f 14/15/1 28/16/1 29/17/1
f 16/18/1 17/19/1 33/20/1 27/21/1
f 18/22/1 75/23/1 74/24/1
f 31/25/1 35/26/1 34/27/1
f 10/8/1 26/7/1 11/10/1
f 26/7/1 2/6/1 8/28/1
f 22/11/1 13/29/1 12/12/1
f 12/12/1 10/8/1 22/11/1
f 25/30/1 23/31/1 24/32/1
f 24/32/1 15/33/1 14/15/1
f 14/15/1 42/34/1 24/32/1
f 23/31/1 63/13/1 64/35/1
f 29/17/1 28/16/1 17/19/1
f 17/19/1 16/18/1 29/17/1
f 28/16/1 14/15/1 15/33/1
f 27/21/1 33/20/1 32/36/1 31/25/1
f 30/37/1 19/38/1 18/22/1
f 18/22/1 27/21/1 30/37/1
f 31/25/1 30/37/1 27/21/1
f 32/36/1 33/20/1 17/19/1
f 34/27/1 35/26/1 77/39/1
f 36/40/1 37/41/1 78/42/1
f 38/43/1 39/44/1 79/45/1
f 42/34/1 14/15/1 44/46/1
f 24/32/1 42/34/1 25/30/1
f 44/46/1 43/47/1 45/48/1 46/49/1
f 46/49/1 45/48/1 47/50/1 48/51/1
f 3/52/1 7/53/1 72/54/1
f 50/55/1 51/56/1 73/57/1
f 52/58/1 53/59/1 88/60/1
f 58/61/1 57/62/1 84/63/1
f 58/61/1 56/64/1 57/62/1
f 57/62/1 56/64/1 82/65/1
f 60/66/1 81/67/1 85/68/1
f 23/31/1 91/69/1 90/70/1
f 65/14/1 63/13/1 23/31/1 25/30/1
f 64/35/1 63/13/1 12/12/1 13/29/1
f 66/71/1 67/72/1 68/73/1
f 73/57/1 51/56/1 4/74/1
f 4/74/1 53/59/1 52/58/1
f 52/58/1 73/57/1 4/74/1
f 72/54/1 7/53/1 6/75/1 71/76/1
f 71/76/1 6/75/1 70/77/1
f 70/77/1 51/56/1 50/55/1
f 51/56/1 70/77/1 6/75/1
f 7/53/1 3/52/1 49/78/1
f 74/24/1 75/23/1 76/79/1
f 76/79/1 21/80/1 20/81/1
f 20/81/1 74/24/1 76/79/1
f 75/23/1 18/22/1 19/38/1
f 77/39/1 35/26/1 37/41/1
f 37/41/1 36/40/1 77/39/1
f 35/26/1 31/25/1 32/36/1
f 78/42/1 37/41/1 39/44/1
f 39/44/1 38/43/1 78/42/1
f 79/45/1 39/44/1 80/82/1
f 80/82/1 41/83/1 40/84/1
f 40/84/1 79/45/1 80/82/1
f 85/68/1 81/67/1 61/85/1
f 61/85/1 62/86/1 85/68/1
f 81/67/1 60/66/1 59/87/1
f 84/63/1 57/62/1 86/88/1
f 86/88/1 87/89/1 60/66/1 84/63/1
f 60/66/1 87/89/1 59/87/1
f 82/65/1 55/90/1 83/91/1
f 55/90/1 54/92/1 83/91/1
f 83/91/1 57/62/1 82/65/1
f 88/60/1 53/59/1 56/64/1
f 56/64/1 58/61/1 88/60/1
f 68/73/1 67/72/1 69/93/1
f 90/70/1 91/69/1 67/72/1 89/94/1
f 89/94/1 67/72/1 66/71/1
f 91/69/1 23/31/1 64/35/1
f 44/46/1 14/15/1 43/47/1
f 92/95/1 93/96/1 49/97/1
f 94/98/1 92/95/1 49/97/1 3/99/1
f 95/9/1 94/98/1 3/99/1 8/2/1
f 94/100/1 95/101/1 101/102/1 100/103/1
f 92/104/1 94/100/1 100/103/1 98/105/1
f 1/106/1 5/107/1 97/108/1 96/109/1
f 95/101/1 1/106/1 96/109/1 101/102/1
f 93/110/1 92/104/1 98/105/1 99/111/1
