# Blender v2.78 (sub 0) OBJ File: 'steen1.blend'
# www.blender.org
mtllib steen1.mtl
o Plane
v -1.000000 0.000000 1.000000
v 1.000000 0.000000 1.000000
v -1.000000 0.000000 -1.000000
v 1.000000 0.000000 -1.000000
v 3.199078 0.000000 0.936808
v 3.199078 0.000000 -1.063192
v -1.101107 0.000000 -3.641421
v 0.898893 0.000000 -3.641421
v 1.000000 0.000000 1.000000
v 3.199078 0.000000 0.936808
v -1.000000 0.000000 1.000000
v 1.000000 0.000000 1.000000
v 3.199078 0.000000 0.936808
v -1.044424 0.000000 2.472529
v 0.458005 0.000000 2.472529
v 0.458005 0.000000 2.472529
v 2.657083 0.000000 2.409337
v -1.000000 0.000000 -1.000000
v -1.000000 0.000000 1.000000
v -2.617280 -0.202101 -1.439950
v -2.617280 -0.202101 0.560050
v 0.429675 0.000000 3.677379
v -0.931706 0.430562 0.965655
v 0.941186 0.430562 0.965655
v -0.931706 0.430562 -0.907236
v -0.679554 1.079428 0.755527
v 2.971772 0.397564 0.572733
v 2.884845 0.428528 -1.079806
v -1.026960 0.431503 -3.382027
v 0.849938 0.436201 -3.388234
v 0.941186 0.430562 0.965655
v 2.960072 0.399463 0.917951
v -0.931706 0.430562 0.965655
v 0.941186 0.430562 0.965655
v 2.910278 0.406067 1.080892
v -0.982310 0.437677 2.353333
v 0.433637 0.430562 2.344599
v 0.433637 0.430562 2.344599
v 2.492954 0.430562 2.285423
v -0.931706 0.430562 -0.907236
v -0.931706 0.430562 0.965655
v -2.446201 0.241305 -1.319225
v -2.446201 0.241305 0.553666
v 0.465784 0.414114 3.194028
v -0.811211 0.764278 0.809658
v 0.876409 0.764278 0.809658
v -0.811211 0.764278 -0.877961
v -0.424470 1.322828 0.655353
v 2.726215 0.758843 0.501066
v 2.751022 0.782387 -0.939229
v -0.896526 0.764278 -3.106818
v 0.791222 0.764574 -3.107093
v 0.876409 0.764278 0.809658
v 2.727775 0.760255 0.779713
v -0.811211 0.764278 0.809658
v 0.876409 0.764278 0.809658
v 2.713652 0.758852 0.820866
v -0.873941 0.789149 2.075430
v 0.419068 0.764278 2.052192
v 0.419068 0.764278 2.052192
v 2.274671 0.764278 1.998870
v -0.811211 0.764278 -0.877961
v -0.811211 0.764278 0.809658
v -2.176586 0.594380 -1.249398
v -2.224327 0.636169 0.452941
v 0.510030 0.760195 2.698628
v 0.807990 1.079428 0.755527
v -0.679554 1.079428 -0.732017
v 2.413763 1.069863 0.596845
v 1.777581 1.067908 -1.341927
v -0.755095 1.080682 -2.697302
v 0.732828 1.079569 -2.696707
v 0.807990 1.079428 0.755527
v 2.390176 1.062967 0.700483
v -0.679554 1.079428 0.755527
v 0.807990 1.079428 0.755527
v 2.352347 1.061566 0.801371
v -0.727491 1.102446 1.864376
v 0.404870 1.079428 1.850753
v 0.404870 1.079428 1.850753
v 2.044029 1.085662 1.806767
v -0.679554 1.079428 -0.732017
v -0.679554 1.079428 0.755527
v -1.918916 0.979358 -1.067778
v -1.882441 0.929110 0.428305
v 0.451691 1.062574 2.411074
v 0.692996 1.322921 0.655377
v -0.424469 1.322818 -0.462039
v -1.606829 0.349159 1.574281
v 1.921539 1.322801 0.620041
v 1.921545 1.322820 -0.497346
v -0.494950 1.402242 -1.955153
v 0.641183 1.354304 -1.945998
v 0.692996 1.322921 0.655377
v 1.921539 1.322801 0.620041
v -0.424470 1.322828 0.655353
v 0.692996 1.322921 0.655377
v 1.921539 1.322801 0.620041
v -0.457204 1.345430 1.484682
v 0.394147 1.334288 1.481411
v 0.394147 1.334288 1.481411
v 1.626981 1.348674 1.447525
v -0.424469 1.322818 -0.462039
v -0.424470 1.322828 0.655353
v -1.328851 1.211973 -0.707990
v -1.339490 1.235813 0.412936
v 0.374294 1.322801 2.151178
v -0.064697 1.563188 -0.079716
v -0.065527 1.560421 0.482176
v 0.496373 1.560421 0.482176
v 0.498146 1.567608 -0.079923
v 1.116224 1.572254 0.462147
v 0.841471 1.540624 -0.409795
v 0.470024 1.589011 -0.825331
v -0.094240 1.563129 -0.822108
v 0.496373 1.560421 0.482176
v 1.116224 1.572254 0.462147
v -0.078008 1.560421 0.895883
v 0.344099 1.560421 0.895883
v 0.344099 1.560421 0.895883
v 0.961930 1.560421 0.878129
v -0.064697 1.563188 -0.079716
v -0.525244 1.525288 -0.203926
v -0.065527 1.560421 0.482176
v -0.519902 1.503641 0.358572
v 0.364330 1.531911 1.278054
v -1.788062 -0.095553 1.568319
v -0.258682 1.537206 0.676196
v -1.351956 0.709412 1.457905
v -1.131351 1.045760 1.367594
v -0.771503 1.302574 1.101366
v -0.115758 1.213070 2.015723
v -0.481228 0.000000 2.932855
v 0.115656 1.458678 1.433368
v 0.134122 1.517048 1.202403
v -0.302493 0.604326 2.710211
v -0.243025 0.785195 2.579449
v -0.364919 0.431241 2.843351
v -0.164580 1.079908 2.299281
v -0.212998 0.955341 2.444786
v -0.075917 1.322801 1.783199
v -0.411090 0.258023 2.878683
v 1.386109 0.764278 2.504720
v 1.248476 0.927724 2.412734
v 1.120731 1.079428 2.327358
v 0.970949 1.322801 1.811508
v 1.426017 0.600290 2.683877
v 1.494961 0.000000 3.070922
v 0.740828 1.471015 1.357122
v 1.480878 0.219364 2.968202
v 1.029883 1.227042 2.014478
v 0.602014 1.560421 1.083026
v 1.467320 0.430562 2.869307
v -2.056779 0.766952 -0.264260
v -1.560984 1.091906 -0.207630
v -1.882441 0.929110 -0.211457
v -0.923591 1.411923 0.089432
v -1.339331 1.236010 -0.204856
v -2.446201 0.241305 -0.368875
v -2.227778 0.637461 -0.310934
v -2.295062 0.438362 -0.336479
v -2.617280 -0.202101 -0.404084
v -2.531125 0.021198 -0.386353
v 1.224068 1.434230 -0.802751
v 1.173560 1.571628 0.068727
v 1.921539 1.322801 0.424791
v 2.732012 0.764278 -0.424557
v 2.443603 1.079428 -0.034640
v 3.000503 0.430562 -0.078590
v 3.199078 0.000000 0.274237
v 2.707818 0.430562 1.701665
v 1.649295 1.351798 1.390188
v 2.680103 0.764290 0.897416
v 2.272409 1.079428 1.173638
v 1.083993 1.561461 0.546798
v 2.696565 0.105137 2.162924
vt 0.4399 0.4942
vt 0.4398 0.4939
vt 0.4400 0.4942
vt 0.4399 0.4943
vt 0.4401 0.4943
vt 0.4400 0.4943
vt 0.4400 0.4943
vt 0.4433 0.4894
vt 0.4406 0.4942
vt 0.4400 0.4943
vt 0.4399 0.4943
vt 0.4400 0.4943
vt 0.4399 0.4943
vt 0.4400 0.4943
vt 0.4400 0.4943
vt 0.4399 0.4943
vt 0.4399 0.4943
vt 0.4398 0.4997
vt 0.4398 0.4998
vt 0.4398 0.4997
vt 0.4398 0.4997
vt 0.4398 0.4997
vt 0.4440 0.4985
vt 0.4398 0.4997
vt 0.4398 0.4997
vt 0.4400 0.4943
vt 0.4400 0.4943
vt 0.4400 0.4943
vt 0.4400 0.4943
vt 0.4450 0.4894
vt 0.4450 0.4894
vt 0.4450 0.4894
vt 0.4450 0.4894
vt 0.4417 0.4892
vt 0.4397 0.4939
vt 0.4396 0.4940
vt 0.4404 0.4896
vt 0.4430 0.4976
vt 0.4398 0.4997
vt 0.4422 0.4969
vt 0.4400 0.4943
vt 0.4400 0.4943
vt 0.4400 0.4943
vt 0.4400 0.4943
vt 0.4399 0.4942
vt 0.4399 0.4943
vt 0.4399 0.4943
vt 0.4398 0.4942
vt 0.4398 0.4998
vt 0.4437 0.4997
vt 0.4431 0.5005
vt 0.4398 0.4998
vt 0.4399 0.4943
vt 0.4399 0.4943
vt 0.4399 0.4943
vt 0.4399 0.4943
vt 0.4400 0.4943
vt 0.4400 0.4943
vt 0.4400 0.4943
vt 0.4399 0.4943
vt 0.4399 0.4943
vt 0.4399 0.4943
vt 0.4399 0.4943
vt 0.4407 0.4943
vt 0.4450 0.4914
vt 0.4407 0.4944
vt 0.4398 0.4997
vt 0.4398 0.4997
vt 0.4400 0.4943
vt 0.4400 0.4943
vt 0.4400 0.4943
vt 0.4400 0.4943
vt 0.4450 0.4894
vt 0.4450 0.4894
vt 0.4450 0.4892
vt 0.4450 0.4892
vt 0.4450 0.4892
vt 0.4450 0.4892
vt 0.4398 0.4997
vt 0.4401 0.4943
vt 0.4450 0.4892
vt 0.4450 0.4892
vt 0.4398 0.4997
vt 0.4400 0.4943
vt 0.4400 0.4943
vt 0.4400 0.4943
vt 0.4400 0.4943
vt 0.4400 0.4943
vt 0.4400 0.4943
vt 0.4398 0.4997
vt 0.4450 0.4893
vt 0.4450 0.4893
vt 0.4450 0.4893
vt 0.4450 0.4893
vt 0.4450 0.4895
vt 0.4450 0.4895
vt 0.4395 0.4941
vt 0.4393 0.4904
vt 0.4398 0.4997
vt 0.4398 0.4997
vt 0.4400 0.4943
vt 0.4400 0.4943
vt 0.4399 0.4943
vt 0.4398 0.4943
vt 0.4422 0.5010
vt 0.4398 0.4998
vt 0.4399 0.4943
vt 0.4399 0.4943
vt 0.4400 0.4943
vt 0.4400 0.4943
vt 0.4400 0.4943
vt 0.4399 0.4943
vt 0.4399 0.4943
vt 0.4446 0.4955
vt 0.4407 0.4946
vt 0.4398 0.4997
vt 0.4398 0.4997
vt 0.4450 0.4893
vt 0.4398 0.4997
vt 0.4398 0.4997
vt 0.4400 0.4943
vt 0.4400 0.4943
vt 0.4400 0.4943
vt 0.4400 0.4943
vt 0.4400 0.4943
vt 0.4400 0.4943
vt 0.4400 0.4943
vt 0.4400 0.4943
vt 0.4398 0.4997
vt 0.4398 0.4997
vt 0.4398 0.4943
vt 0.4395 0.4942
vt 0.4400 0.4943
vt 0.4400 0.4943
vt 0.4400 0.4943
vt 0.4399 0.4943
vt 0.4399 0.4943
vt 0.4404 0.4948
vt 0.4398 0.4998
vt 0.4398 0.4997
vt 0.4399 0.4943
vt 0.4399 0.4943
vt 0.4399 0.4943
vt 0.4398 0.4997
vt 0.4398 0.4997
vt 0.4400 0.4943
vt 0.4400 0.4944
vt 0.4400 0.4944
vt 0.4400 0.4943
vt 0.4400 0.4943
vt 0.4400 0.4943
vt 0.4400 0.4943
vt 0.4400 0.4943
vt 0.4400 0.4943
vt 0.4400 0.4943
vt 0.4399 0.4943
vt 0.4400 0.4944
vt 0.4400 0.4944
vt 0.4398 0.4997
vt 0.4401 0.4943
vt 0.4400 0.4944
vt 0.4450 0.4893
vt 0.4398 0.4997
vt 0.4398 0.4997
vt 0.4400 0.4943
vt 0.4400 0.4943
vt 0.4398 0.4997
vt 0.4398 0.4997
vt 0.4399 0.4943
vt 0.4399 0.4943
vt 0.4399 0.4943
vt 0.4398 0.4997
vt 0.4398 0.4997
vt 0.4398 0.4997
vt 0.4397 0.4997
vt 0.4400 0.4943
vt 0.4400 0.4943
vt 0.4400 0.4943
vt 0.4400 0.4944
vt 0.4400 0.4943
vt 0.4399 0.4943
vt 0.4400 0.4943
vt 0.4399 0.4944
vt 0.4399 0.4944
vt 0.4399 0.4944
vt 0.4398 0.4997
vt 0.4398 0.4997
vt 0.4398 0.4997
vt 0.4399 0.4943
vt 0.4399 0.4943
vt 0.4398 0.4943
vt 0.4400 0.4944
vt 0.4399 0.4944
vt 0.4398 0.4997
vt 0.4398 0.4997
vt 0.4398 0.4997
vt 0.4407 0.5009
vt 0.4408 0.4969
vt 0.4386 0.4978
vt 0.4386 0.4922
vt 0.4450 0.4895
vt 0.4450 0.4895
vt 0.4450 0.4894
vt 0.4450 0.4894
vt 0.4450 0.4894
vt 0.4398 0.4943
vt 0.4398 0.4944
vt 0.4397 0.4944
vt 0.4399 0.4944
vt 0.4399 0.4947
vt 0.4386 0.4953
vt 0.4399 0.4943
vt 0.4398 0.4998
vt 0.4391 0.5000
vt 0.4400 0.4943
vt 0.4418 0.4969
vt 0.4400 0.4943
vt 0.4398 0.4997
vt 0.4398 0.4997
vt 0.4400 0.4943
vt 0.4400 0.4943
vt 0.4450 0.4932
vn 0.0000 -1.0000 0.0000
vn 0.0000 0.0000 1.0000
vn 0.1240 -0.9923 0.0000
vn 0.1253 -0.9921 -0.0048
vn 0.1230 -0.9924 0.0037
vn -0.9406 0.3376 0.0362
vn -0.6798 0.6069 -0.4117
vn 0.7735 0.5917 0.2272
vn -0.9557 0.2911 -0.0443
vn 0.9406 -0.3376 -0.0362
vn -0.9406 0.3396 0.0000
vn -0.4747 0.6378 0.6065
vn 0.8875 0.3250 0.3267
vn -0.0041 0.6499 -0.7600
vn 0.9406 -0.3396 0.0000
vn -0.0166 -0.6383 -0.7696
vn -0.5985 0.2990 0.7433
vn -0.9877 0.1567 0.0000
vn 0.9883 -0.1478 -0.0380
vn -0.9892 0.1427 -0.0332
vn 0.8296 0.5074 0.2330
vn -0.7640 0.4238 -0.4866
vn -0.9883 0.1478 0.0380
vn 0.9892 -0.1427 0.0332
vn 0.6617 0.4623 -0.5903
vn 0.0035 0.2736 0.9618
vn -0.7523 0.2987 0.5872
vn 0.8776 0.4783 0.0312
vn 0.8535 0.4158 0.3141
vn 0.4531 0.4017 0.7958
vn 0.8573 0.5142 0.0262
vn -0.9330 0.3600 -0.0000
vn -0.9273 -0.1539 -0.3413
vn -0.0035 -0.2736 -0.9618
vn 0.9877 -0.1567 0.0000
vn -0.0041 0.5017 -0.8651
vn 0.9273 0.1539 0.3413
vn -0.9283 0.3700 0.0357
vn -0.6636 0.6326 -0.3994
vn 0.6160 0.7503 0.2401
vn -0.9210 0.3862 -0.0507
vn 0.9283 -0.3700 -0.0357
vn -0.9227 0.3855 0.0000
vn -0.4963 0.6175 0.6102
vn 0.9076 0.2544 0.3341
vn 0.0008 0.7933 -0.6088
vn 0.9227 -0.3855 0.0000
vn 0.9557 -0.2911 0.0443
vn 0.6157 0.5731 -0.5408
vn 0.0166 0.6383 0.7696
vn -0.6873 0.5165 0.5107
vn 0.7942 0.6068 0.0322
vn 0.6939 0.6732 0.2554
vn 0.1643 0.7859 0.5961
vn 0.8325 0.5540 0.0106
vn -0.7935 0.6086 0.0000
vn -0.8875 -0.3250 -0.3267
vn -0.6903 0.7235 -0.0000
vn -0.2526 0.8882 0.3838
vn 0.8212 0.4871 0.2972
vn 0.0008 0.9391 -0.3436
vn 0.6903 -0.7235 0.0000
vn -0.0190 -0.8296 -0.5580
vn -0.8212 -0.4871 -0.2972
vn -0.4513 0.8895 0.0714
vn 0.4570 0.8745 0.1622
vn 0.1401 0.8255 0.5467
vn 0.4335 0.8890 0.1476
vn 0.4495 0.8929 0.0266
vn 0.9210 -0.3862 0.0507
vn 0.3984 0.8406 -0.3671
vn 0.0235 0.5451 0.8380
vn -0.5860 0.7158 0.3797
vn 0.7303 0.6827 0.0233
vn 0.6996 0.6681 0.2532
vn 0.1720 0.5892 0.7895
vn 0.6863 0.7256 0.0500
vn -0.7637 0.6453 -0.0202
vn -0.9076 -0.2544 -0.3341
vn -0.0235 -0.5451 -0.8380
vn -0.0091 -0.9353 -0.3539
vn -0.6511 -0.7232 -0.2303
vn -0.3340 0.9402 -0.0660
vn 0.1063 0.9656 0.2375
vn 0.2245 0.9699 0.0938
vn 0.0204 0.5905 0.8067
vn 0.2970 0.9545 0.0279
vn -0.2985 0.9432 0.1459
vn 0.0091 0.9353 0.3539
vn 0.2339 0.9543 -0.1860
vn 0.5485 -0.8354 0.0351
vn 0.7789 -0.6253 -0.0475
vn -0.7009 0.7118 -0.0459
vn 0.4527 0.8729 0.1819
vn -0.4098 0.8806 -0.2379
vn -0.7789 0.6253 0.0475
vn 0.7009 -0.7118 0.0459
vn 0.3904 0.8608 -0.3264
vn 0.0190 0.8296 0.5580
vn -0.4678 0.8417 0.2696
vn -0.0039 1.0000 0.0088
vn -0.0059 0.9998 -0.0177
vn -0.0268 0.9995 0.0154
vn 0.1019 0.9945 0.0247
vn -0.0024 0.9999 0.0134
vn 0.0000 1.0000 0.0000
vn -0.1088 0.9938 0.0220
vn -0.0829 0.9966 0.0032
vn -0.1230 0.9924 -0.0037
vn -0.0248 0.9991 0.0342
vn -0.0360 0.9926 0.1158
vn -0.0204 -0.5905 -0.8067
vn 0.5540 -0.8325 -0.0011
vn 0.0429 0.9869 -0.1553
vn 0.6511 0.7232 0.2303
vn -0.1654 0.9526 0.2555
vn -0.5540 0.8325 0.0011
vn 0.5483 -0.8346 -0.0542
vn -0.5485 0.8354 -0.0351
vn -0.3228 0.9437 -0.0719
vn -0.5483 0.8346 0.0542
vn -0.6818 0.6026 -0.4147
vn -0.6909 0.7194 0.0716
vn -0.3262 0.9424 -0.0743
vn -0.1894 0.9793 -0.0721
vn -0.5451 0.8384 0.0001
vn -0.5760 0.7310 -0.3659
vn -0.2464 0.9684 0.0396
vn -0.7627 0.4266 -0.4861
vn -0.9475 0.3196 0.0048
vn -0.6631 0.6095 0.4346
vn -0.4294 0.8663 0.2552
vn -0.6835 0.5705 0.4554
vn -0.3023 0.9415 0.1491
vn -0.6240 0.6023 0.4978
vn -0.6678 0.5773 0.4698
vn -0.3079 0.9399 0.1474
vn -0.6445 0.5619 0.5185
vn -0.4227 0.8667 0.2647
vn -0.3005 0.9408 0.1567
vn -0.4292 0.8679 0.2499
vn -0.7664 0.2678 0.5839
vn -0.6474 0.6102 0.4566
vn -0.1387 0.9627 0.2322
vn -0.5892 0.3093 0.7464
vn -0.3766 0.7619 0.5269
vn -0.1048 0.6051 0.7892
vn -0.1959 0.7894 0.5817
vn 0.2089 0.9065 0.3670
vn 0.1407 0.7457 0.6512
vn 0.3614 0.6695 0.6489
vn 0.1081 0.9637 0.2443
vn -0.2072 0.9449 0.2535
vn -0.0788 0.7090 0.7008
vn -0.1012 0.6283 0.7713
vn -0.1385 0.9628 0.2322
vn -0.6001 0.3173 0.7343
vn -0.1902 0.7725 0.6058
vn -0.2984 0.8819 0.3650
vn -0.3576 0.6458 0.6746
vn -0.2540 0.8916 0.3750
vn -0.4816 0.6241 0.6153
vn 0.2021 0.9071 0.3693
vn 0.1384 0.9601 0.2431
vn 0.3378 0.7305 0.5934
vn 0.3686 0.6622 0.6524
vn 0.2817 0.6484 0.7073
vn 0.1097 0.6573 0.7456
vn 0.1993 0.8938 0.4017
vn -0.6610 0.7503 -0.0093
vn -0.6044 0.7967 0.0041
vn -0.3003 0.9451 0.1284
vn -0.4277 0.9037 0.0185
vn -0.4774 0.8785 -0.0164
vn -0.3898 0.9209 0.0002
vn -0.8471 0.5308 -0.0263
vn -0.8518 0.5234 -0.0211
vn 0.2031 0.9685 -0.1439
vn -0.0460 0.9763 -0.2115
vn -0.0002 0.7914 -0.6113
vn 0.0000 0.5152 -0.8571
vn -0.0002 0.6374 -0.7706
vn 0.0418 0.9114 -0.4095
vn 0.6802 0.4236 -0.5982
vn 0.3714 0.8856 -0.2788
vn 0.5808 0.6836 -0.4420
vn 0.6488 0.4800 -0.5905
vn 0.8685 0.4932 -0.0501
vn 0.2421 0.9668 -0.0817
vn 0.9336 0.3416 -0.1085
vn 0.8064 0.5913 0.0000
vn 0.4263 0.8924 -0.1482
vn 0.5320 0.8308 -0.1632
vn 0.4523 0.8851 0.1092
vn 0.2672 0.9607 0.0747
vn 0.7603 0.6070 0.2313
vn 0.8472 0.4416 0.2955
vn 0.6464 0.7528 0.1244
usemtl Material.001
s off
f 1/1/1 3/2/1 4/3/1 2/4/1
f 4/3/1 6/5/1 170/6/1 5/7/1 2/4/1
f 3/2/1 7/8/1 8/9/1 4/3/1
f 4/3/1 8/9/1 6/5/1
f 5/7/2 10/10/2 9/11/2 2/4/2
f 10/10/2 13/12/2 12/13/2 9/11/2
f 13/12/1 17/14/1 16/15/1 12/13/1
f 2/4/1 15/16/1 14/17/1 1/1/1
f 20/18/3 18/19/3 19/20/3 21/21/3 162/22/3
f 20/18/4 7/23/4 18/19/4
f 14/24/5 127/25/5 21/21/5 19/20/5
f 17/14/1 148/26/1 22/27/1 16/15/1
f 22/27/1 133/28/1 14/29/1 16/15/1
f 25/30/2 40/31/2 62/32/2 47/33/2
f 29/34/6 25/35/6 47/36/6 51/37/6
f 29/38/7 42/39/7 51/40/7
f 35/41/8 32/42/8 54/43/8 57/44/8
f 23/45/9 36/46/9 58/47/9 45/48/9
f 40/49/10 29/50/10 51/51/10 62/52/10
f 31/53/2 34/54/2 56/55/2 53/56/2
f 25/35/11 23/45/11 45/48/11 47/36/11
f 36/57/12 138/58/12 136/59/12
f 37/60/13 24/61/13 46/62/13 59/63/13
f 30/64/14 29/65/14 52/66/14
f 41/67/15 40/49/15 62/52/15 63/68/15
f 38/69/16 36/57/16 58/70/16 60/71/16
f 14/29/17 133/28/17 142/72/17 36/57/17
f 3/2/18 1/1/18 23/45/18 25/35/18
f 9/11/2 12/13/2 34/54/2 31/53/2
f 18/19/19 7/23/19 29/50/19 40/49/19
f 1/1/20 14/17/20 36/46/20 23/45/20
f 13/12/21 10/10/21 32/42/21 35/41/21
f 7/23/22 42/39/22 29/38/22
f 7/8/23 3/2/23 25/35/23 29/34/23
f 3/73/2 18/74/2 40/31/2 25/30/2
f 1/75/2 11/76/2 33/77/2 23/78/2
f 14/24/24 19/20/24 41/67/24 36/79/24
f 6/5/25 8/9/25 28/80/25
f 11/76/2 19/81/2 41/82/2 33/77/2
f 14/17/26 15/16/26 37/60/26 36/46/26
f 21/21/27 127/25/27 89/83/27
f 5/7/28 170/6/28 169/84/28 27/85/28
f 2/4/2 9/11/2 31/53/2 24/61/2
f 17/14/29 176/86/29 171/87/29 39/88/29
f 22/27/30 148/26/30 150/89/30
f 10/10/31 5/7/31 27/85/31 32/42/31
f 20/18/32 162/22/32 163/90/32 42/39/32
f 12/13/33 16/15/33 38/69/33 34/54/33
f 16/15/34 14/29/34 36/57/34 38/69/34
f 19/20/35 18/19/35 40/49/35 41/67/35
f 8/9/36 29/65/36 30/64/36
f 15/16/37 2/4/37 24/61/37 37/60/37
f 45/91/2 55/92/2 75/93/2 26/94/2
f 47/33/2 62/32/2 82/95/2 68/96/2
f 51/37/38 47/36/38 68/97/38 71/98/38
f 51/40/39 64/99/39 84/100/39
f 57/44/40 54/43/40 74/101/40 77/102/40
f 45/48/41 58/47/41 78/103/41 26/104/41
f 62/52/42 51/51/42 71/105/42 82/106/42
f 53/56/2 56/55/2 76/107/2 73/108/2
f 47/36/43 45/48/43 26/104/43 68/97/43
f 58/70/44 137/109/44 140/110/44 78/111/44
f 59/63/45 46/62/45 67/112/45 79/113/45
f 52/66/46 71/114/46 72/115/46
f 63/68/47 62/52/47 82/106/47 83/116/47
f 23/78/2 33/77/2 55/92/2 45/91/2
f 36/79/48 41/67/48 63/68/48 58/117/48
f 28/80/49 30/64/49 52/66/49
f 33/77/2 41/82/2 63/118/2 55/92/2
f 36/46/50 37/60/50 59/63/50 58/47/50
f 43/119/51 89/83/51 65/120/51
f 27/85/52 169/84/52 167/121/52 49/122/52
f 24/61/2 31/53/2 53/56/2 46/62/2
f 39/88/53 171/87/53 173/123/53 61/124/53
f 44/125/54 153/126/54 147/127/54 66/128/54
f 32/42/55 27/85/55 49/122/55 54/43/55
f 42/39/56 159/129/56 161/130/56
f 34/54/57 38/69/57 60/71/57 56/55/57
f 68/97/58 26/104/58 48/131/58 88/132/58
f 78/111/59 132/133/59 141/134/59 99/135/59
f 79/113/60 67/112/60 87/136/60 100/137/60
f 72/115/61 71/114/61 93/138/61
f 83/116/62 82/106/62 103/139/62 104/140/62
f 80/141/63 78/111/63 99/135/63 101/142/63
f 76/107/64 80/141/64 101/142/64 97/143/64
f 84/100/65 156/144/65 155/145/65
f 74/101/66 69/146/66 90/147/66 95/148/66
f 86/149/67 145/150/67 151/151/67 107/152/67
f 81/153/68 174/154/68 102/155/68
f 67/112/2 73/108/2 94/156/2 87/136/2
f 69/146/69 168/157/69 166/158/69 90/147/69
f 58/117/70 63/68/70 83/116/70 78/159/70
f 50/160/71 52/66/71 70/161/71
f 55/92/2 63/118/2 83/162/2 75/93/2
f 58/47/72 59/63/72 79/113/72 78/103/72
f 65/120/73 130/163/73 85/164/73
f 49/122/74 167/121/74 168/157/74 69/146/74
f 46/62/2 53/56/2 73/108/2 67/112/2
f 61/124/75 173/123/75 174/154/75 81/153/75
f 66/128/76 143/165/76 144/166/76
f 54/43/77 49/122/77 69/146/77 74/101/77
f 64/99/78 160/167/78 154/168/78 84/100/78
f 56/55/79 60/71/79 80/141/79 76/107/79
f 60/71/80 58/70/80 78/111/80 80/141/80
f 101/142/81 99/135/81 118/169/81 120/170/81
f 97/143/82 101/142/82 120/170/82 116/171/82
f 105/172/83 158/173/83 157/174/83 123/175/83
f 107/152/84 149/176/84 152/177/84 126/178/84
f 90/147/2 87/136/2 94/156/2 95/148/2
f 95/148/2 94/156/2 97/143/2 98/179/2
f 102/155/85 172/180/85 175/181/85 121/182/85
f 87/136/86 90/147/86 112/183/86 110/184/86
f 90/147/87 166/158/87 165/185/87 112/183/87
f 106/186/88 128/187/88 125/188/88
f 99/189/89 100/137/89 119/190/89 118/191/89
f 91/192/90 93/138/90 164/193/90
f 99/194/91 104/140/91 124/195/91 118/196/91
f 73/108/2 76/107/2 97/143/2 94/156/2
f 82/106/92 71/105/92 92/197/92 103/139/92
f 26/104/93 78/103/93 99/189/93 48/131/93
f 77/102/94 74/101/94 95/148/94 98/179/94
f 71/198/95 84/100/95 92/199/95
f 71/98/96 68/97/96 88/132/96 92/200/96
f 68/96/2 82/95/2 103/201/2 88/202/2
f 26/94/2 75/93/2 96/203/2 48/204/2
f 78/159/97 83/116/97 104/140/97 99/194/97
f 70/161/98 93/138/98 91/192/98
f 75/93/2 83/162/2 104/205/2 96/203/2
f 78/103/99 79/113/99 100/137/99 99/189/99
f 85/164/100 130/163/100 106/186/100
f 109/206/101 110/184/101 111/207/101 108/208/101
f 111/207/102 110/184/102 112/183/102 165/185/102 113/209/102
f 108/208/103 111/207/103 114/210/103 115/211/103
f 111/207/104 113/209/104 114/210/104
f 117/212/105 116/171/105 120/170/105 121/182/105 175/181/105
f 110/184/106 109/206/106 118/191/106 119/190/106
f 123/175/107 125/188/107 124/195/107 122/213/107
f 123/175/108 122/213/108 115/214/108
f 118/196/109 124/195/109 125/188/109 128/187/109
f 121/182/110 120/170/110 126/178/110 152/177/110
f 126/178/111 120/170/111 118/169/111 135/215/111
f 98/179/112 97/143/112 116/171/112 117/212/112
f 104/140/113 103/139/113 122/213/113 124/195/113
f 93/138/114 92/216/114 115/211/114
f 100/137/115 87/136/115 110/184/115 119/190/115
f 99/135/116 141/134/116 134/217/116 118/169/116
f 88/132/117 48/131/117 109/206/117 108/208/117
f 103/139/118 92/197/118 115/214/118 122/213/118
f 48/131/119 99/189/119 118/191/119 109/206/119
f 92/199/120 105/172/120 123/175/120
f 92/200/121 88/132/121 108/208/121 115/211/121
f 51/40/122 42/39/122 64/99/122
f 84/100/123 154/168/123 156/144/123
f 92/199/124 84/100/124 105/172/124
f 123/175/125 115/214/125 92/199/125
f 106/186/126 158/173/126 155/145/126
f 42/39/32 163/90/32 159/129/32
f 84/100/127 71/198/127 51/40/127
f 123/175/128 157/174/128 125/188/128
f 42/39/129 7/23/129 20/18/129
f 65/120/130 160/167/130 161/130/130
f 129/218/131 89/83/131 58/117/131
f 89/83/27 127/25/27 14/24/27
f 131/219/132 130/163/132 99/194/132
f 130/163/133 129/218/133 58/117/133
f 128/187/134 99/194/134 118/196/134
f 65/120/135 89/83/135 129/218/135
f 58/117/136 89/83/136 36/79/136
f 89/83/27 43/119/27 21/21/27
f 99/194/137 128/187/137 131/219/137
f 130/163/138 65/120/138 129/218/138
f 106/186/139 130/163/139 131/219/139
f 128/187/140 106/186/140 131/219/140
f 99/194/141 130/163/141 78/159/141
f 14/24/142 36/79/142 89/83/142
f 58/117/143 78/159/143 130/163/143
f 118/169/144 134/217/144 135/215/144
f 36/57/145 142/72/145 138/58/145
f 78/111/146 140/110/146 139/220/146
f 66/128/147 137/109/147 136/59/147
f 107/152/148 132/133/148 139/220/148 86/149/148
f 107/152/149 151/151/149 146/221/149
f 66/128/150 147/127/150 143/165/150
f 39/88/30 153/126/30 150/89/30
f 81/153/151 145/150/151 144/166/151
f 121/182/152 149/176/152 146/221/152 102/155/152
f 134/217/153 141/134/153 107/152/153
f 139/220/154 140/110/154 66/128/154 86/149/154
f 140/110/155 137/109/155 66/128/155
f 135/215/156 134/217/156 107/152/156 126/178/156
f 142/72/157 133/28/157 22/27/157
f 136/59/158 138/58/158 44/125/158 66/128/158
f 141/134/159 132/133/159 107/152/159
f 138/58/160 142/72/160 22/27/160 44/125/160
f 139/220/161 132/133/161 78/111/161
f 136/59/162 137/109/162 58/70/162 36/57/162
f 151/151/163 145/150/163 81/153/163
f 146/221/164 149/176/164 107/152/164
f 147/127/165 153/126/165 39/88/165
f 143/165/165 147/127/165 39/88/165 61/124/165
f 150/89/30 148/26/30 17/14/30 39/88/30
f 144/166/166 143/165/166 61/124/166 81/153/166
f 150/89/167 153/126/167 44/125/167 22/27/167
f 144/166/168 145/150/168 86/149/168 66/128/168
f 152/177/164 149/176/164 121/182/164
f 146/221/169 151/151/169 81/153/169 102/155/169
f 156/144/170 154/168/170 65/120/170 85/164/170
f 159/129/32 163/90/32 21/21/32 43/119/32
f 154/168/171 160/167/171 65/120/171
f 125/188/172 157/174/172 106/186/172
f 155/145/173 158/173/173 105/172/173 84/100/173
f 155/145/174 156/144/174 85/164/174 106/186/174
f 163/90/32 162/22/32 21/21/32
f 157/174/175 158/173/175 106/186/175
f 161/130/176 159/129/176 43/119/176 65/120/176
f 161/130/177 160/167/177 64/99/177 42/39/177
f 164/193/178 93/138/178 114/210/178 113/209/178
f 115/211/179 114/210/179 93/138/179
f 71/114/180 52/66/180 51/222/180
f 29/65/181 8/9/181 7/8/181
f 52/66/182 29/65/182 51/222/182
f 93/138/183 71/114/183 92/216/183
f 28/80/184 8/9/184 30/64/184
f 93/138/185 70/161/185 72/115/185
f 70/161/186 52/66/186 72/115/186
f 52/66/187 50/160/187 28/80/187
f 167/121/188 169/84/188 28/80/188 50/160/188
f 165/185/189 166/158/189 91/192/189 164/193/189 113/209/189
f 169/84/190 170/6/190 28/80/190
f 28/80/191 170/6/191 6/5/191
f 168/157/192 167/121/192 50/160/192 70/161/192
f 166/158/193 168/157/193 70/161/193 91/192/193
f 102/155/194 174/154/194 77/102/194 98/179/194 172/180/194
f 175/181/195 172/180/195 98/179/195 117/212/195
f 173/123/196 171/87/196 35/41/196 57/44/196
f 171/87/197 176/86/197 17/14/197 13/12/197 35/41/197
f 174/154/198 173/123/198 57/44/198 77/102/198
