# Blender v2.78 (sub 0) OBJ File: ''
# www.blender.org
mtllib stone.mtl
o Icosphere_Icosphere.001
v 0.000000 -1.000000 -0.000000
v 0.425323 -0.850654 0.309011
v -0.162456 -0.850654 0.499995
v 0.723607 -0.447220 0.525725
v 0.850648 -0.525736 -0.000000
v -0.525730 -0.850652 -0.000000
v -0.162456 -0.850654 -0.499995
v 0.425323 -0.850654 -0.309011
v 1.404759 -0.007880 0.508732
v -0.276388 -0.447220 0.850649
v 0.262869 -0.525738 0.809012
v 0.000000 -0.025876 1.453330
v -0.894426 -0.447216 -0.000000
v -0.688189 -0.525736 0.499997
v -1.404759 -0.007880 0.508732
v -0.276388 -0.447220 -0.850649
v -0.688189 -0.525736 -0.499997
v -0.693435 -0.000075 -0.956462
v 0.723607 -0.447220 -0.525725
v 0.262869 -0.525738 -0.809012
v 0.693435 -0.000075 -0.956462
v 0.748299 -0.017987 1.116785
v -0.748299 -0.017987 1.116785
v -1.226398 -0.003553 -0.382823
v 0.000012 -0.011992 -1.322684
v 1.226398 -0.003553 -0.382823
v 0.368071 0.628296 1.085051
v 0.705360 0.538102 0.512473
v 0.152084 0.731215 0.450079
v -0.798775 0.492461 0.580430
v -0.302061 0.593572 0.914394
v -0.366838 0.723148 0.281166
v -0.723607 0.447220 -0.525725
v -0.926900 0.570154 -0.000073
v -0.356394 0.686232 -0.249980
v 0.298891 0.492226 -0.919907
v -0.275602 0.551203 -0.848199
v 0.154891 0.823857 -0.484351
v 0.911590 0.455798 0.000000
v 0.688189 0.525736 -0.499997
v 0.505674 0.809437 0.003032
v 0.017817 0.760276 0.000036
vt 0.4194 0.5047
vt 0.4070 0.5047
vt 0.4070 0.4922
vt 0.4194 0.5047
vt 0.4070 0.4922
vt 0.4070 0.5047
vt 0.4070 0.4922
vt 0.4070 0.5047
vt 0.4070 0.4922
vt 0.4070 0.5047
vt 0.4070 0.4922
vt 0.4070 0.5047
vt 0.4070 0.4922
vt 0.4194 0.5047
vt 0.4070 0.5047
vt 0.4070 0.4922
vt 0.4194 0.5047
vt 0.4070 0.5047
vt 0.4070 0.4922
vt 0.4194 0.5047
vt 0.4070 0.5047
vt 0.4070 0.4922
vt 0.4194 0.5047
vt 0.4070 0.5047
vt 0.4070 0.4922
vt 0.4070 0.5047
vt 0.4070 0.4922
vt 0.4070 0.5047
vt 0.4070 0.4922
vt 0.4070 0.5047
vt 0.4070 0.4922
vt 0.4070 0.5047
vt 0.4070 0.4922
vt 0.4070 0.5047
vt 0.4070 0.4922
vt 0.4194 0.5047
vt 0.4070 0.5047
vt 0.4070 0.4922
vt 0.4194 0.5047
vt 0.4070 0.5047
vt 0.4070 0.4922
vt 0.4194 0.5047
vt 0.4070 0.5047
vt 0.4070 0.4922
vt 0.4194 0.5047
vt 0.4070 0.5047
vt 0.4070 0.4922
vt 0.4194 0.5047
vt 0.4070 0.5047
vt 0.4070 0.4922
vt 0.4194 0.5047
vt 0.4070 0.5047
vt 0.4070 0.4922
vt 0.4194 0.5047
vt 0.4070 0.5047
vt 0.4194 0.5047
vt 0.4070 0.5047
vt 0.4194 0.5047
vt 0.4070 0.5047
vt 0.4194 0.5047
vt 0.4070 0.5047
vt 0.4194 0.5047
vt 0.4070 0.5047
vt 0.4194 0.5047
vt 0.4070 0.5047
vt 0.4194 0.5047
vt 0.4070 0.5047
vt 0.4194 0.5047
vt 0.4070 0.5047
vt 0.4194 0.5047
vt 0.4070 0.5047
vt 0.4194 0.5047
vt 0.4070 0.4922
vt 0.4070 0.4922
vt 0.4194 0.5047
vt 0.4194 0.5047
vt 0.4070 0.4922
vt 0.4070 0.4922
vt 0.4194 0.5047
vt 0.4194 0.5047
vt 0.4070 0.4922
vt 0.4070 0.4922
vt 0.4194 0.5047
vt 0.4194 0.5047
vt 0.4070 0.4922
vt 0.4070 0.4922
vt 0.4194 0.5047
vt 0.4194 0.5047
vt 0.4070 0.4922
vt 0.4070 0.4922
vt 0.4194 0.5047
vt 0.4070 0.5047
vt 0.4194 0.5047
vt 0.4070 0.5047
vt 0.4070 0.5047
vt 0.4194 0.5047
vt 0.4070 0.5047
vt 0.4070 0.5047
vt 0.4194 0.5047
vt 0.4070 0.5047
vt 0.4070 0.5047
vt 0.4194 0.5047
vt 0.4070 0.5047
vt 0.4070 0.5047
vt 0.4194 0.5047
vt 0.4070 0.5047
vt 0.4194 0.5047
vt 0.4070 0.4922
vt 0.4070 0.4922
vt 0.4194 0.5047
vt 0.4070 0.4922
vt 0.4070 0.4922
vt 0.4194 0.5047
vt 0.4070 0.4922
vt 0.4070 0.4922
vt 0.4194 0.5047
vt 0.4070 0.5047
vt 0.4194 0.5047
vt 0.4070 0.5047
vt 0.4070 0.4922
vt 0.4070 0.4922
vn 0.1024 -0.9435 0.3151
vn 0.7002 -0.6617 0.2680
vn -0.2680 -0.9435 0.1947
vn -0.2680 -0.9435 -0.1947
vn 0.1024 -0.9435 -0.3151
vn 0.5293 -0.8110 0.2490
vn -0.0710 -0.8019 0.5932
vn -0.5811 -0.8060 0.1131
vn -0.4580 -0.5855 -0.6689
vn 0.4947 -0.5854 -0.6423
vn 0.4772 -0.7204 0.5032
vn -0.2929 -0.7154 0.6344
vn -0.7261 -0.6714 -0.1485
vn -0.3985 -0.5461 -0.7369
vn 0.6243 -0.5197 -0.5832
vn 0.3250 0.9448 0.0426
vn -0.3354 0.9156 0.2217
vn -0.3259 0.8848 -0.3330
vn 0.0063 0.7966 -0.6044
vn 0.6448 0.7417 -0.1844
vn -0.1012 0.9904 0.0941
vn -0.1004 0.9898 0.1015
vn -0.1004 0.9901 0.0977
vn 0.4579 0.8351 -0.3048
vn 0.4241 0.7826 -0.4557
vn -0.2331 0.9705 0.0614
vn -0.3573 0.8995 -0.2513
vn -0.3875 0.8866 -0.2525
vn -0.1474 0.9865 -0.0715
vn -0.2290 0.9708 -0.0720
vn -0.3503 0.9151 0.1998
vn -0.0403 0.9963 0.0764
vn -0.0828 0.9746 0.2079
vn -0.0995 0.9763 0.1921
vn -0.1004 0.9905 0.0939
vn 0.2690 0.8899 0.3685
vn 0.6508 0.7458 0.1421
vn 0.7078 0.6705 -0.2225
vn 0.6307 0.5123 -0.5829
vn 0.6019 0.5269 -0.6001
vn -0.0312 0.6350 -0.7719
vn -0.4076 0.4634 -0.7868
vn -0.5681 0.5507 -0.6116
vn -0.6715 0.6206 -0.4048
vn -0.8260 0.5397 -0.1626
vn -0.6349 0.7348 0.2385
vn -0.5301 0.5888 0.6102
vn -0.3475 0.5133 0.7847
vn -0.2301 0.5725 0.7870
vn 0.7862 0.4816 0.3873
vn 0.5108 0.6504 0.5622
vn 0.6113 0.7822 0.1204
vn 0.4228 0.3992 -0.8135
vn 0.4012 -0.5368 -0.7422
vn -0.0512 -0.7191 -0.6930
vn -0.6286 0.5170 -0.5809
vn -0.6266 -0.5145 -0.5853
vn -0.7048 -0.6854 -0.1831
vn -0.5493 0.5789 0.6026
vn -0.4951 -0.6939 0.5229
vn -0.3487 -0.7400 0.5752
vn 0.3921 0.2738 0.8782
vn 0.3033 -0.6890 0.6583
vn 0.4418 -0.7346 0.5150
vn 0.7541 0.6399 -0.1478
vn 0.7459 -0.6484 -0.1524
vn 0.6792 -0.6839 -0.2663
vn 0.4713 -0.6617 -0.5831
vn 0.1876 -0.7947 -0.5773
vn -0.0385 -0.6617 -0.7488
vn -0.4089 -0.6617 -0.6284
vn -0.4911 -0.7947 -0.3568
vn -0.7240 -0.6617 -0.1947
vn -0.7240 -0.6617 0.1947
vn -0.4911 -0.7947 0.3568
vn -0.4089 -0.6617 0.6284
vn 0.7002 -0.6617 -0.2680
vn 0.6071 -0.7947 0.0000
vn 0.3313 -0.9435 -0.0000
vn -0.0385 -0.6617 0.7488
vn 0.1876 -0.7947 0.5773
vn 0.4713 -0.6617 0.5831
usemtl None
s 1
f 1/1/1 2/2/1 3/3/1
f 4/4/2 2/2/2 5/5/2
f 1/1/3 3/6/3 6/7/3
f 1/1/4 6/8/4 7/9/4
f 1/1/5 7/10/5 8/11/5
f 4/4/6 5/12/6 9/13/6
f 10/14/7 11/15/7 12/16/7
f 13/17/8 14/18/8 15/19/8
f 16/20/9 17/21/9 18/22/9
f 19/23/10 20/24/10 21/25/10
f 4/4/11 9/26/11 22/27/11
f 10/14/12 12/28/12 23/29/12
f 13/17/13 15/30/13 24/31/13
f 16/20/14 18/32/14 25/33/14
f 19/23/15 21/34/15 26/35/15
f 27/36/16 28/37/16 29/38/16
f 30/39/17 31/40/17 32/41/17
f 33/42/18 34/43/18 35/44/18
f 36/45/19 37/46/19 38/47/19
f 39/48/20 40/49/20 41/50/20
f 41/51/21 38/52/22 42/53/23
f 41/51/24 40/49/24 38/47/24
f 40/54/25 36/55/25 38/47/25
f 38/56/26 35/57/26 42/53/26
f 38/56/27 37/46/27 35/44/27
f 37/58/28 33/59/28 35/44/28
f 35/60/29 32/61/29 42/53/29
f 35/60/30 34/43/30 32/41/30
f 34/62/31 30/63/31 32/41/31
f 32/64/32 29/65/32 42/53/32
f 32/64/33 31/40/33 29/38/33
f 31/66/34 27/67/34 29/38/34
f 29/68/35 41/69/21 42/53/23
f 29/68/36 28/37/36 41/50/36
f 28/70/37 39/71/37 41/50/37
f 26/72/38 40/49/38 39/73/38
f 26/72/39 21/34/39 40/74/39
f 21/75/40 36/55/40 40/74/40
f 25/76/41 37/46/41 36/77/41
f 25/76/42 18/32/42 37/78/42
f 18/79/43 33/59/43 37/78/43
f 24/80/44 34/43/44 33/81/44
f 24/80/45 15/30/45 34/82/45
f 15/83/46 30/63/46 34/82/46
f 23/84/47 31/40/47 30/85/47
f 23/84/48 12/28/48 31/86/48
f 12/87/49 27/67/49 31/86/49
f 22/88/50 28/37/50 27/89/50
f 22/88/51 9/26/51 28/90/51
f 9/91/52 39/71/52 28/90/52
f 21/75/53 25/92/53 36/77/53
f 21/75/54 20/24/54 25/33/54
f 20/93/55 16/94/55 25/33/55
f 18/79/56 24/95/56 33/81/56
f 18/79/57 17/21/57 24/31/57
f 17/96/58 13/97/58 24/31/58
f 15/83/59 23/98/59 30/85/59
f 15/83/60 14/18/60 23/29/60
f 14/99/61 10/100/61 23/29/61
f 12/87/62 22/101/62 27/89/62
f 12/87/63 11/15/63 22/27/63
f 11/102/64 4/103/64 22/27/64
f 9/91/65 26/104/65 39/73/65
f 9/91/66 5/12/66 26/35/66
f 5/105/67 19/106/67 26/35/67
f 8/107/68 20/24/68 19/108/68
f 8/107/69 7/10/69 20/109/69
f 7/110/70 16/94/70 20/109/70
f 7/110/71 17/21/71 16/111/71
f 7/110/72 6/8/72 17/112/72
f 6/113/73 13/97/73 17/112/73
f 6/113/74 14/18/74 13/114/74
f 6/113/75 3/6/75 14/115/75
f 3/116/76 10/100/76 14/115/76
f 5/105/77 8/117/77 19/108/77
f 5/105/78 2/2/78 8/11/78
f 2/118/79 1/119/79 8/11/79
f 3/116/80 11/15/80 10/120/80
f 3/116/81 2/2/81 11/121/81
f 2/118/82 4/103/82 11/121/82
o Icosphere.001_Icosphere.002
v -0.476752 -1.152919 0.723871
v -0.041643 -0.978954 0.292940
v 0.067543 -0.978954 1.004520
v 0.263505 -0.509014 -0.009277
v -0.317020 -0.600473 -0.254044
v -0.575472 -0.978951 1.328257
v -1.082058 -0.978954 0.816745
v -0.752130 -0.978954 0.176890
v 0.371874 0.002749 -0.795529
v 0.449266 -0.509014 1.201343
v 0.502658 -0.600475 0.573588
v 1.194014 -0.018213 0.996773
v -0.644705 -0.509009 1.752115
v -0.031175 -0.600474 1.608910
v -0.155688 0.002749 2.434328
v -1.506568 -0.509014 0.881878
v -1.180781 -0.600474 1.421135
v -1.706523 0.011841 1.341451
v -0.945256 -0.509014 -0.206715
v -1.357441 -0.600475 0.269761
v -1.446101 0.011841 -0.252911
v 0.947631 -0.009024 0.073324
v 0.666605 -0.009024 1.793831
v -1.147139 0.007790 2.061868
v -1.997323 -0.002040 0.475489
v -0.686561 0.007790 -0.757896
v 0.839751 0.743798 0.504480
v 0.244843 0.638735 0.009212
v 0.069222 0.863682 0.633548
v 0.040526 0.585571 1.751144
v 0.517726 0.703349 1.242826
v -0.222403 0.854285 1.198389
v -1.217009 0.532871 1.457020
v -0.650887 0.676071 1.789434
v -0.831055 0.811283 1.086645
v -1.478163 0.585297 0.207525
v -1.503604 0.653996 0.881434
v -1.004483 0.971596 0.454857
v -0.305577 0.542863 -0.324104
v -0.922329 0.624331 -0.161167
v -0.378312 0.954798 0.143112
v -0.473365 0.897534 0.703396
vt 0.4208 0.4937
vt 0.4149 0.4937
vt 0.4149 0.4877
vt 0.4208 0.4937
vt 0.4149 0.4877
vt 0.4149 0.4937
vt 0.4149 0.4877
vt 0.4149 0.4937
vt 0.4149 0.4877
vt 0.4149 0.4937
vt 0.4149 0.4877
vt 0.4149 0.4937
vt 0.4149 0.4877
vt 0.4208 0.4937
vt 0.4149 0.4937
vt 0.4149 0.4877
vt 0.4208 0.4937
vt 0.4149 0.4937
vt 0.4149 0.4877
vt 0.4208 0.4937
vt 0.4149 0.4937
vt 0.4149 0.4877
vt 0.4208 0.4937
vt 0.4149 0.4937
vt 0.4149 0.4877
vt 0.4149 0.4937
vt 0.4149 0.4877
vt 0.4149 0.4937
vt 0.4149 0.4877
vt 0.4149 0.4937
vt 0.4149 0.4877
vt 0.4149 0.4937
vt 0.4149 0.4877
vt 0.4149 0.4937
vt 0.4149 0.4877
vt 0.4208 0.4937
vt 0.4149 0.4937
vt 0.4149 0.4877
vt 0.4208 0.4937
vt 0.4149 0.4937
vt 0.4149 0.4877
vt 0.4208 0.4937
vt 0.4149 0.4937
vt 0.4149 0.4877
vt 0.4208 0.4937
vt 0.4149 0.4937
vt 0.4149 0.4877
vt 0.4208 0.4937
vt 0.4149 0.4937
vt 0.4149 0.4877
vt 0.4208 0.4937
vt 0.4149 0.4937
vt 0.4149 0.4877
vt 0.4208 0.4937
vt 0.4149 0.4937
vt 0.4208 0.4937
vt 0.4149 0.4937
vt 0.4208 0.4937
vt 0.4149 0.4937
vt 0.4208 0.4937
vt 0.4149 0.4937
vt 0.4208 0.4937
vt 0.4149 0.4937
vt 0.4208 0.4937
vt 0.4149 0.4937
vt 0.4208 0.4937
vt 0.4149 0.4937
vt 0.4208 0.4937
vt 0.4149 0.4937
vt 0.4208 0.4937
vt 0.4149 0.4937
vt 0.4208 0.4937
vt 0.4149 0.4877
vt 0.4149 0.4877
vt 0.4208 0.4937
vt 0.4208 0.4937
vt 0.4149 0.4877
vt 0.4149 0.4877
vt 0.4208 0.4937
vt 0.4208 0.4937
vt 0.4149 0.4877
vt 0.4149 0.4877
vt 0.4208 0.4937
vt 0.4208 0.4937
vt 0.4149 0.4877
vt 0.4149 0.4877
vt 0.4208 0.4937
vt 0.4208 0.4937
vt 0.4149 0.4877
vt 0.4149 0.4877
vt 0.4208 0.4937
vt 0.4149 0.4937
vt 0.4208 0.4937
vt 0.4149 0.4937
vt 0.4149 0.4937
vt 0.4208 0.4937
vt 0.4149 0.4937
vt 0.4149 0.4937
vt 0.4208 0.4937
vt 0.4149 0.4937
vt 0.4149 0.4937
vt 0.4208 0.4937
vt 0.4149 0.4937
vt 0.4149 0.4937
vt 0.4208 0.4937
vt 0.4149 0.4937
vt 0.4208 0.4937
vt 0.4149 0.4877
vt 0.4149 0.4877
vt 0.4208 0.4937
vt 0.4149 0.4877
vt 0.4149 0.4877
vt 0.4208 0.4937
vt 0.4149 0.4877
vt 0.4149 0.4877
vt 0.4208 0.4937
vt 0.4149 0.4937
vt 0.4208 0.4937
vt 0.4149 0.4937
vt 0.4149 0.4877
vt 0.4149 0.4877
vn 0.3275 -0.9435 -0.0502
vn 0.3774 -0.6617 -0.6479
vn 0.1490 -0.9435 0.2959
vn -0.2354 -0.9435 0.2331
vn -0.2945 -0.9435 -0.1518
vn 0.3311 -0.8110 -0.4823
vn 0.5740 -0.8019 0.1657
vn 0.0180 -0.8060 0.5917
vn -0.7340 -0.5855 0.3442
vn -0.5542 -0.5854 -0.5918
vn 0.5736 -0.7204 -0.3899
vn 0.5789 -0.7154 0.3913
vn -0.2636 -0.6714 0.6926
vn -0.7915 -0.5461 0.2745
vn -0.4749 -0.5197 -0.7102
vn 0.0944 0.9448 -0.3138
vn 0.1647 0.9156 0.3668
vn -0.3812 0.8848 0.2679
vn -0.5955 0.7966 -0.1037
vn -0.0780 0.7417 -0.6661
vn 0.0767 0.9905 0.1138
vn 0.0840 0.9898 0.1154
vn 0.0803 0.9901 0.1148
vn -0.2270 0.8351 -0.5010
vn -0.3813 0.7826 -0.4920
vn 0.0231 0.9705 0.2399
vn -0.3056 0.8995 0.3121
vn -0.3116 0.8866 0.3417
vn -0.0943 0.9865 0.1340
vn -0.1080 0.9708 0.2144
vn 0.1407 0.9151 0.3779
vn 0.0689 0.9963 0.0521
vn 0.1918 0.9746 0.1153
vn 0.1735 0.9763 0.1292
vn 0.0765 0.9905 0.1142
vn 0.4070 0.8899 -0.2061
vn 0.2452 0.7458 -0.6194
vn -0.1055 0.6705 -0.7344
vn -0.4736 0.5123 -0.7164
vn -0.4952 0.5269 -0.6908
vn -0.7668 0.6350 -0.0937
vn -0.8422 0.4634 0.2754
vn -0.6952 0.5507 0.4620
vn -0.5078 0.6206 0.5974
vn -0.2937 0.5397 0.7890
vn 0.1330 0.7348 0.6651
vn 0.5168 0.5888 0.6215
vn 0.7184 0.5133 0.4695
vn 0.7396 0.5725 0.3539
vn 0.5089 0.4816 -0.7135
vn 0.6372 0.6504 -0.4134
vn 0.2173 0.7822 -0.5839
vn -0.7347 0.3992 -0.5484
vn -0.6678 -0.5368 -0.5156
vn -0.6922 -0.7191 -0.0612
vn -0.6747 0.5170 0.5268
vn -0.6787 -0.5145 0.5241
vn -0.2943 -0.6854 0.6661
vn 0.5062 0.5789 0.6392
vn 0.4363 -0.6939 0.5729
vn 0.5115 -0.7400 0.4368
vn 0.9300 0.2738 -0.2454
vn 0.6985 -0.6890 -0.1932
vn 0.5795 -0.7346 -0.3530
vn -0.0243 0.6399 -0.7680
vn -0.0301 -0.6484 -0.7607
vn -0.1533 -0.6839 -0.7132
vn -0.4995 -0.6617 -0.5591
vn -0.5396 -0.7947 -0.2782
vn -0.7452 -0.6617 -0.0827
vn -0.6861 -0.6617 0.3023
vn -0.4313 -0.7947 0.4272
vn -0.3089 -0.6617 0.6832
vn 0.0755 -0.6617 0.7460
vn 0.2730 -0.7947 0.5422
vn 0.5543 -0.6617 0.5049
vn -0.1516 -0.6617 -0.7343
vn 0.0979 -0.7947 -0.5991
vn 0.0534 -0.9435 -0.3270
vn 0.7328 -0.6617 0.1587
vn 0.6000 -0.7947 -0.0921
vn 0.6515 -0.6617 -0.3711
usemtl None
s 1
f 43/122/83 44/123/83 45/124/83
f 46/125/84 44/123/84 47/126/84
f 43/122/85 45/127/85 48/128/85
f 43/122/86 48/129/86 49/130/86
f 43/122/87 49/131/87 50/132/87
f 46/125/88 47/133/88 51/134/88
f 52/135/89 53/136/89 54/137/89
f 55/138/90 56/139/90 57/140/90
f 58/141/91 59/142/91 60/143/91
f 61/144/92 62/145/92 63/146/92
f 46/125/93 51/147/93 64/148/93
f 52/135/94 54/149/94 65/150/94
f 55/138/95 57/151/95 66/152/95
f 58/141/96 60/153/96 67/154/96
f 61/144/97 63/155/97 68/156/97
f 69/157/98 70/158/98 71/159/98
f 72/160/99 73/161/99 74/162/99
f 75/163/100 76/164/100 77/165/100
f 78/166/101 79/167/101 80/168/101
f 81/169/102 82/170/102 83/171/102
f 83/172/103 80/173/104 84/174/105
f 83/172/106 82/170/106 80/168/106
f 82/175/107 78/176/107 80/168/107
f 80/177/108 77/178/108 84/174/108
f 80/177/109 79/167/109 77/165/109
f 79/179/110 75/180/110 77/165/110
f 77/181/111 74/182/111 84/174/111
f 77/181/112 76/164/112 74/162/112
f 76/183/113 72/184/113 74/162/113
f 74/185/114 71/186/114 84/174/114
f 74/185/115 73/161/115 71/159/115
f 73/187/116 69/188/116 71/159/116
f 71/189/117 83/190/103 84/174/105
f 71/189/118 70/158/118 83/171/118
f 70/191/119 81/192/119 83/171/119
f 68/193/120 82/170/120 81/194/120
f 68/193/121 63/155/121 82/195/121
f 63/196/122 78/176/122 82/195/122
f 67/197/123 79/167/123 78/198/123
f 67/197/124 60/153/124 79/199/124
f 60/200/125 75/180/125 79/199/125
f 66/201/126 76/164/126 75/202/126
f 66/201/127 57/151/127 76/203/127
f 57/204/128 72/184/128 76/203/128
f 65/205/129 73/161/129 72/206/129
f 65/205/130 54/149/130 73/207/130
f 54/208/131 69/188/131 73/207/131
f 64/209/132 70/158/132 69/210/132
f 64/209/133 51/147/133 70/211/133
f 51/212/134 81/192/134 70/211/134
f 63/196/135 67/213/135 78/198/135
f 63/196/136 62/145/136 67/154/136
f 62/214/137 58/215/137 67/154/137
f 60/200/138 66/216/138 75/202/138
f 60/200/139 59/142/139 66/152/139
f 59/217/140 55/218/140 66/152/140
f 57/204/141 65/219/141 72/206/141
f 57/204/142 56/139/142 65/150/142
f 56/220/143 52/221/143 65/150/143
f 54/208/144 64/222/144 69/210/144
f 54/208/145 53/136/145 64/148/145
f 53/223/146 46/224/146 64/148/146
f 51/212/147 68/225/147 81/194/147
f 51/212/148 47/133/148 68/156/148
f 47/226/149 61/227/149 68/156/149
f 50/228/150 62/145/150 61/229/150
f 50/228/151 49/131/151 62/230/151
f 49/231/152 58/215/152 62/230/152
f 49/231/153 59/142/153 58/232/153
f 49/231/154 48/129/154 59/233/154
f 48/234/155 55/218/155 59/233/155
f 48/234/156 56/139/156 55/235/156
f 48/234/157 45/127/157 56/236/157
f 45/237/158 52/221/158 56/236/158
f 47/226/159 50/238/159 61/229/159
f 47/226/160 44/123/160 50/132/160
f 44/239/161 43/240/161 50/132/161
f 45/237/162 53/136/162 52/241/162
f 45/237/163 44/123/163 53/242/163
f 44/239/164 46/224/164 53/242/164
