# Blender v2.78 (sub 0) OBJ File: ''
# www.blender.org
mtllib table.mtl
o Plane
v -0.000000 0.146352 -0.103501
v 0.000001 0.146353 11.648902
v 0.000000 -1.000000 -0.103501
v 0.000001 -0.999999 11.648902
v 0.000001 -0.999999 10.531024
v 0.000000 0.146353 10.073720
v 0.000000 0.146353 11.100801
v -1.061618 0.146353 11.100801
v -2.015255 0.146353 11.100801
v -7.093113 -1.000000 -0.103500
v -7.093113 0.146352 -0.103501
v -7.093112 0.146353 11.100801
v -7.093112 0.146353 11.648902
v -7.093112 -0.999999 11.648902
v -7.093112 -0.999999 10.531024
v -7.093112 0.146353 10.073720
v -24.152817 -1.000001 -0.103500
v -24.152817 0.146351 -0.103500
v -24.152817 0.146352 11.100801
v -24.152817 0.146352 11.648903
v -24.152817 -1.000000 11.648903
v -24.152817 -1.000000 10.531025
v -24.152817 0.146352 10.073721
v -1.091403 0.146353 10.073720
v -2.014415 0.146353 10.073720
v -2.015256 15.064858 11.100800
v -1.061618 15.064858 11.100800
v -1.091403 15.064858 10.073719
v -2.014416 15.064858 10.073719
v -22.699146 0.146352 10.073721
v -21.934418 0.146352 10.073721
v -22.702732 0.146352 11.100801
v -21.739044 0.146352 11.100801
v -22.699146 0.146352 10.073721
v -21.934418 0.146352 10.073721
v -22.702732 0.146352 11.100801
v -21.739044 0.146352 11.100801
v -22.699146 15.108699 10.073720
v -21.934418 15.108699 10.073720
v -22.702732 15.108699 11.100801
v -21.739044 15.108699 11.100801
v -0.000000 0.146352 0.103501
v -0.000001 0.146351 -11.648902
v 0.000000 -1.000000 0.103501
v -0.000000 -1.000001 -11.648902
v -0.000000 -1.000001 -10.531024
v -0.000000 0.146351 -10.073720
v -0.000000 0.146351 -11.100801
v -1.061619 0.146351 -11.100801
v -2.015256 0.146351 -11.100801
v -7.093113 -1.000000 0.103501
v -7.093113 0.146352 0.103501
v -7.093113 0.146351 -11.100801
v -7.093113 0.146351 -11.648902
v -7.093113 -1.000001 -11.648902
v -7.093113 -1.000001 -10.531024
v -7.093113 0.146351 -10.073720
v -24.152817 -1.000001 0.103502
v -24.152817 0.146351 0.103502
v -24.152817 0.146350 -11.100800
v -24.152817 0.146350 -11.648901
v -24.152817 -1.000002 -11.648901
v -24.152817 -1.000002 -10.531023
v -24.152817 0.146350 -10.073719
v -1.091404 0.146351 -10.073720
v -2.014416 0.146351 -10.073720
v -2.015257 15.064857 -11.100801
v -1.061619 15.064857 -11.100801
v -1.091404 15.064857 -10.073721
v -2.014417 15.064857 -10.073721
v -22.699146 0.146350 -10.073719
v -21.934418 0.146351 -10.073719
v -22.702732 0.146350 -11.100800
v -21.739044 0.146350 -11.100800
v -22.699146 0.146350 -10.073719
v -21.934418 0.146351 -10.073719
v -22.702732 0.146350 -11.100800
v -21.739044 0.146350 -11.100800
v -22.699148 15.108697 -10.073720
v -21.934420 15.108697 -10.073720
v -22.702734 15.108697 -11.100801
v -21.739046 15.108697 -11.100801
v 0.000000 -1.000000 -0.103501
v -0.000000 0.146352 -0.103501
v 0.000000 0.146353 11.100801
v 0.000001 0.146353 11.648902
v 0.000001 -0.999999 11.648902
v 0.000001 -0.999999 10.531024
v 0.000000 0.146353 10.073720
v -7.093112 -0.999999 11.648902
v -7.093112 -0.999999 10.531024
v -1.091403 0.146353 10.073720
v -2.015255 0.146353 11.100801
v -1.061618 0.146353 11.100801
v -7.093112 0.146353 11.100801
v -7.093113 -1.000000 -0.103500
v -7.093113 0.146352 -0.103501
v -7.093112 0.146353 11.648902
v -7.093112 0.146353 10.073720
v -24.152817 -1.000000 10.531025
v -24.152817 -1.000001 -0.103500
v -2.014415 0.146353 10.073720
v -24.152817 0.146351 -0.103500
v -24.152817 0.146352 11.100801
v -24.152817 0.146352 11.648903
v -24.152817 -1.000000 11.648903
v -24.152817 0.146352 10.073721
v -21.739044 0.146352 11.100801
v -21.934418 0.146352 10.073721
v -2.015256 15.064858 11.100800
v -1.061618 15.064858 11.100800
v -1.091403 15.064858 10.073719
v -2.014416 15.064858 10.073719
v -22.699146 0.146352 10.073721
v -22.702732 0.146352 11.100801
v -22.699146 0.146352 10.073721
v -21.934418 0.146352 10.073721
v -22.702732 0.146352 11.100801
v -21.739044 0.146352 11.100801
v -22.699146 15.108699 10.073720
v -21.934418 15.108699 10.073720
v -22.702732 15.108699 11.100801
v -21.739044 15.108699 11.100801
v 0.000000 -1.000000 0.103501
v -0.000000 0.146352 0.103501
v -0.000000 0.146351 -11.100801
v -0.000001 0.146351 -11.648902
v -0.000000 -1.000001 -11.648902
v -0.000000 -1.000001 -10.531024
v -0.000000 0.146351 -10.073720
v -7.093113 -1.000001 -11.648902
v -7.093113 -1.000001 -10.531024
v -1.091404 0.146351 -10.073720
v -2.015256 0.146351 -11.100801
v -1.061619 0.146351 -11.100801
v -7.093113 0.146351 -11.100801
v -7.093113 -1.000000 0.103501
v -7.093113 0.146352 0.103501
v -7.093113 0.146351 -11.648902
v -7.093113 0.146351 -10.073720
v -24.152817 -1.000002 -10.531023
v -24.152817 -1.000001 0.103502
v -2.014416 0.146351 -10.073720
v -24.152817 0.146351 0.103502
v -24.152817 0.146350 -11.100800
v -24.152817 0.146350 -11.648901
v -24.152817 -1.000002 -11.648901
v -24.152817 0.146350 -10.073719
v -21.739044 0.146350 -11.100800
v -21.934418 0.146351 -10.073719
v -2.015257 15.064857 -11.100801
v -1.061619 15.064857 -11.100801
v -1.091404 15.064857 -10.073721
v -2.014417 15.064857 -10.073721
v -22.699146 0.146350 -10.073719
v -22.702732 0.146350 -11.100800
v -22.699146 0.146350 -10.073719
v -21.934418 0.146351 -10.073719
v -22.702732 0.146350 -11.100800
v -21.739044 0.146350 -11.100800
v -22.699148 15.108697 -10.073720
v -21.934420 15.108697 -10.073720
v -22.702734 15.108697 -11.100801
v -21.739046 15.108697 -11.100801
vt 0.0000 0.0000
vt 0.0000 0.0000
vt 0.0000 0.0000
vt 0.0000 0.0000
vt 0.0000 0.0000
vt 0.0000 0.0000
vt 0.0000 0.0000
vt 0.0000 0.0000
vt 0.0000 0.0000
vt 0.0000 0.0000
vt 0.0000 0.0000
vt 0.0000 0.0000
vt 0.0000 0.0000
vt 0.0000 0.0000
vt 0.0000 0.0000
vt 0.0000 0.0000
vt 0.0000 0.0000
vt 0.0000 0.0000
vt 0.0000 0.0000
vt 0.0000 0.0000
vt 0.0000 0.0000
vt 0.0000 0.0000
vt 0.0000 0.0000
vt 0.0000 0.0000
vt 0.0000 0.0000
vt 0.0000 0.0000
vt 0.0000 0.0000
vt 0.0000 0.0000
vt 0.0000 0.0000
vt 0.0000 0.0000
vt 0.0000 0.0000
vt 0.0000 0.0000
vt 0.0000 0.0000
vt 0.0000 0.0000
vt 0.0000 0.0000
vt 0.0000 0.0000
vt 0.0000 0.0000
vt 0.0000 0.0000
vt 0.0000 0.0000
vt 0.0000 0.0000
vt 0.0000 0.0000
vt 0.0000 0.0000
vt 0.0000 0.0000
vt 0.0000 0.0000
vt 0.0000 0.0000
vt 0.0000 0.0000
vt 0.0000 0.0000
vt 0.0000 0.0000
vt 0.0000 0.0000
vt 0.0000 0.0000
vt 0.0000 0.0000
vt 0.0000 0.0000
vt 0.0000 0.0000
vt 0.0000 0.0000
vt 0.0000 0.0000
vt 0.0000 0.0000
vt 0.0000 0.0000
vt 0.0000 0.0000
vt 0.0000 0.0000
vt 0.0000 0.0000
vt 0.0000 0.0000
vt 0.0000 0.0000
vt 0.0000 0.0000
vt 0.0000 0.0000
vt 0.0000 0.0000
vt 0.0000 0.0000
vt 0.0000 0.0000
vt 0.0000 0.0000
vt 0.0000 0.0000
vt 0.0000 0.0000
vt 0.0000 0.0000
vt 0.0000 0.0000
vt 0.0000 0.0000
vt 0.0000 0.0000
vt 0.0000 0.0000
vt 0.0000 0.0000
vt 0.0000 0.0000
vt 0.0000 0.0000
vt 0.0000 0.0000
vt 0.0000 0.0000
vt 0.0000 0.0000
vt 0.0000 0.0000
vt 0.0000 0.0000
vt 0.0000 0.0000
vt 0.0000 0.0000
vt 0.0000 0.0000
vt 0.0000 0.0000
vt 0.0000 0.0000
vt 0.0000 0.0000
vt 0.0000 0.0000
vt 0.0000 0.0000
vt 0.0000 0.0000
vt 0.0000 0.0000
vt 0.0000 0.0000
vt 0.0000 0.0000
vt 0.0000 0.0000
vt 0.9704 0.5213
vt 0.9677 0.5199
vt 0.9693 0.5227
vt 0.9706 0.5232
vt 0.9737 0.5130
vt 0.9737 0.5130
vt 0.9737 0.5130
vt 0.9737 0.5130
vt 0.9761 0.5088
vt 0.9746 0.5138
vt 0.9691 0.5206
vt 0.9704 0.5197
vt 0.9720 0.5177
vt 0.9677 0.5217
vt 0.9739 0.5190
vt 0.9724 0.5193
vt 0.9722 0.5396
vt 0.9729 0.5381
vt 0.9678 0.5453
vt 0.9680 0.5464
vt 0.9706 0.5423
vt 0.9705 0.5368
vt 0.9666 0.5406
vt 0.9710 0.5118
vt 0.9730 0.5126
vt 0.9735 0.5146
vt 0.9746 0.5022
vt 0.9741 0.5133
vt 0.9745 0.5110
vt 0.9685 0.5366
vt 0.9697 0.5415
vt 0.9660 0.5433
vt 0.9706 0.5411
vt 0.9374 0.6785
vt 0.9389 0.6768
vt 0.9381 0.6789
vt 0.9381 0.6789
vt 0.9378 0.6805
vt 0.9381 0.6789
vt 0.9384 0.6792
vt 0.9381 0.6789
vt 0.9354 0.7072
vt 0.9355 0.7065
vt 0.9353 0.7057
vt 0.9353 0.7057
vt 0.9711 0.5407
vt 0.9711 0.5413
vt 0.9719 0.5400
vt 0.9722 0.5392
vt 0.9709 0.5398
vt 0.9709 0.5398
vt 0.9709 0.5398
vt 0.9709 0.5398
vt 0.9365 0.7051
vt 0.9353 0.7057
vt 0.9363 0.7058
vt 0.9353 0.7057
vt 0.9777 0.5273
vt 0.9799 0.5307
vt 0.9813 0.5310
vt 0.9809 0.5283
vt 0.9809 0.5209
vt 0.9809 0.5209
vt 0.9809 0.5209
vt 0.9809 0.5209
vt 0.9830 0.5148
vt 0.9821 0.5284
vt 0.9836 0.5281
vt 0.9815 0.5094
vt 0.9852 0.5283
vt 0.9810 0.5175
vt 0.9787 0.5295
vt 0.9783 0.5445
vt 0.9789 0.5453
vt 0.9801 0.5287
vt 0.9799 0.5471
vt 0.9812 0.5491
vt 0.9810 0.5497
vt 0.9835 0.5507
vt 0.9793 0.5448
vt 0.9813 0.5216
vt 0.9808 0.5217
vt 0.9811 0.5239
vt 0.9840 0.5193
vt 0.9813 0.5197
vt 0.9810 0.5211
vt 0.9814 0.5441
vt 0.9814 0.5477
vt 0.9820 0.5506
vt 0.9805 0.5467
vt 0.9452 0.6876
vt 0.9452 0.6868
vt 0.9452 0.6867
vt 0.9456 0.6856
vt 0.9456 0.6874
vt 0.9452 0.6868
vt 0.9452 0.6867
vt 0.9453 0.6870
vt 0.9440 0.7124
vt 0.9442 0.7113
vt 0.9442 0.7113
vt 0.9442 0.7121
vt 0.9797 0.5465
vt 0.9799 0.5462
vt 0.9789 0.5452
vt 0.9791 0.5456
vt 0.9798 0.5454
vt 0.9799 0.5454
vt 0.9798 0.5454
vt 0.9798 0.5454
vt 0.9442 0.7113
vt 0.9433 0.7110
vt 0.9442 0.7113
vt 0.9434 0.7114
vn -0.0000 -0.0000 -1.0000
vn 0.0000 1.0000 0.0000
vn 0.0000 0.0000 1.0000
vn 0.0000 -1.0000 0.0000
vn -1.0000 0.0000 0.0000
vn 0.9996 0.0000 -0.0290
vn -1.0000 -0.0000 -0.0008
vn -1.0000 0.0000 -0.0035
vn 0.9824 -0.0000 -0.1869
vn 0.9996 0.0000 0.0290
vn -1.0000 -0.0000 0.0008
vn -1.0000 -0.0000 0.0035
vn 0.9824 0.0000 0.1869
vn 1.0000 -0.0000 0.0000
vn -0.9996 -0.0000 0.0290
vn 1.0000 0.0000 0.0008
vn 1.0000 0.0000 0.0035
vn -0.9824 0.0000 0.1869
vn -0.9996 -0.0000 -0.0290
vn 1.0000 0.0000 -0.0008
vn 1.0000 0.0000 -0.0035
vn -0.9824 -0.0000 -0.1869
usemtl None
s off
f 3/1/1 10/2/1 11/3/1 1/4/1
f 28/5/2 29/6/2 26/7/2 27/8/2
f 2/9/3 13/10/3 14/11/3 4/12/3
f 4/12/4 14/11/4 15/13/4 5/14/4
f 16/15/2 31/16/2 33/17/2 12/18/2
f 12/18/2 33/17/2 32/19/2 19/20/2 20/21/2 13/10/2
f 15/13/4 22/22/4 17/23/4 10/2/4
f 1/4/2 11/3/2 16/15/2 25/24/2 24/25/2 6/26/2
f 5/14/4 15/13/4 10/2/4 3/1/4
f 7/27/2 8/28/2 9/29/2 12/18/2 13/10/2 2/9/2
f 6/26/2 24/25/2 8/28/2 7/27/2
f 18/30/5 17/23/5 22/22/5 23/31/5
f 22/22/5 19/20/5 23/31/5
f 19/20/5 22/22/5 21/32/5 20/21/5
f 14/11/4 21/32/4 22/22/4 15/13/4
f 13/10/3 20/21/3 21/32/3 14/11/3
f 10/2/1 17/23/1 18/30/1 11/3/1
f 11/3/2 18/30/2 23/31/2 30/33/2 31/16/2 16/15/2
f 24/25/6 28/5/6 27/8/6 8/28/6
f 25/24/2 16/15/2 12/18/2 9/29/2
f 25/24/1 29/6/1 28/5/1 24/25/1
f 8/28/3 27/8/3 26/7/3 9/29/3
f 9/29/7 26/7/7 29/6/7 25/24/7
f 36/34/8 40/35/8 38/36/8 34/37/8
f 32/19/3 36/34/3 34/37/3 30/33/3
f 30/33/2 23/31/2 19/20/2 32/19/2
f 31/16/3 35/38/3 37/39/3 33/17/3
f 33/17/3 37/39/3 36/34/3 32/19/3
f 30/33/3 34/37/3 35/38/3 31/16/3
f 39/40/2 38/36/2 40/35/2 41/41/2
f 34/37/1 38/36/1 39/40/1 35/38/1
f 35/38/9 39/40/9 41/41/9 37/39/9
f 37/39/3 41/41/3 40/35/3 36/34/3
f 44/42/3 42/43/3 52/44/3 51/45/3
f 69/46/2 68/47/2 67/48/2 70/49/2
f 43/50/1 45/51/1 55/52/1 54/53/1
f 45/51/4 46/54/4 56/55/4 55/52/4
f 57/56/2 53/57/2 74/58/2 72/59/2
f 53/57/2 54/53/2 61/60/2 60/61/2 73/62/2 74/58/2
f 56/55/4 51/45/4 58/63/4 63/64/4
f 42/43/2 47/65/2 65/66/2 66/67/2 57/56/2 52/44/2
f 46/54/4 44/42/4 51/45/4 56/55/4
f 48/68/2 43/50/2 54/53/2 53/57/2 50/69/2 49/70/2
f 47/65/2 48/68/2 49/70/2 65/66/2
f 59/71/5 64/72/5 63/64/5 58/63/5
f 63/64/5 64/72/5 60/61/5
f 60/61/5 61/60/5 62/73/5 63/64/5
f 55/52/4 56/55/4 63/64/4 62/73/4
f 54/53/1 55/52/1 62/73/1 61/60/1
f 51/45/3 52/44/3 59/71/3 58/63/3
f 52/44/2 57/56/2 72/59/2 71/74/2 64/72/2 59/71/2
f 65/66/10 49/70/10 68/47/10 69/46/10
f 66/67/2 50/69/2 53/57/2 57/56/2
f 66/67/3 65/66/3 69/46/3 70/49/3
f 49/70/1 50/69/1 67/48/1 68/47/1
f 50/69/11 66/67/11 70/49/11 67/48/11
f 77/75/12 75/76/12 79/77/12 81/78/12
f 73/62/3 71/74/3 75/76/3 77/75/3
f 71/74/2 73/62/2 60/61/2 64/72/2
f 72/59/3 74/58/3 78/79/3 76/80/3
f 74/58/3 73/62/3 77/75/3 78/79/3
f 71/74/3 72/59/3 76/80/3 75/76/3
f 80/81/2 82/82/2 81/78/2 79/77/2
f 75/76/3 76/80/3 80/81/3 79/77/3
f 76/80/13 78/79/13 82/82/13 80/81/13
f 78/79/1 77/75/1 81/78/1 82/82/1
f 6/26/3 7/27/3 85/83/3 89/84/3
f 42/43/3 44/42/3 124/85/3 125/86/3
f 3/1/3 1/4/3 84/87/3 83/88/3
f 43/50/3 48/68/3 126/89/3 127/90/3
f 7/27/3 2/9/3 86/91/3 85/83/3
f 45/51/3 43/50/3 127/90/3 128/92/3
f 2/9/3 4/12/3 87/93/3 86/91/3
f 44/42/3 46/54/3 129/94/3 124/85/3
f 5/14/3 3/1/3 83/88/3 88/95/3
f 46/54/3 45/51/3 128/92/3 129/94/3
f 47/65/3 42/43/3 125/86/3 130/96/3
f 4/12/3 5/14/3 88/95/3 87/93/3
f 48/68/3 47/65/3 130/96/3 126/89/3
f 1/4/3 6/26/3 89/84/3 84/87/3
usemtl None_palette.png
f 83/97/3 84/98/3 97/99/3 96/100/3
f 112/101/4 111/102/4 110/103/4 113/104/4
f 86/105/1 87/106/1 90/107/1 98/108/1
f 87/106/2 88/109/2 91/110/2 90/107/2
f 99/111/4 95/112/4 108/113/4 109/114/4
f 95/112/4 98/108/4 105/115/4 104/116/4 115/117/4 108/113/4
f 91/110/2 96/100/2 101/118/2 100/119/2
f 84/98/4 89/120/4 92/121/4 102/122/4 99/111/4 97/99/4
f 88/109/2 83/97/2 96/100/2 91/110/2
f 85/123/4 86/105/4 98/108/4 95/112/4 93/124/4 94/125/4
f 89/120/4 85/123/4 94/125/4 92/121/4
f 103/126/14 107/127/14 100/119/14 101/118/14
f 100/119/14 107/127/14 104/116/14
f 104/116/14 105/115/14 106/128/14 100/119/14
f 90/107/2 91/110/2 100/119/2 106/128/2
f 98/108/1 90/107/1 106/128/1 105/115/1
f 96/100/3 97/99/3 103/126/3 101/118/3
f 97/99/4 99/111/4 109/114/4 114/129/4 107/127/4 103/126/4
f 92/130/15 94/131/15 111/132/15 112/133/15
f 102/122/4 93/124/4 95/112/4 99/111/4
f 102/134/3 92/130/3 112/133/3 113/135/3
f 94/131/1 93/136/1 110/137/1 111/132/1
f 93/136/16 102/134/16 113/135/16 110/137/16
f 118/138/17 116/139/17 120/140/17 122/141/17
f 115/117/3 114/129/3 116/142/3 118/143/3
f 114/129/4 115/117/4 104/116/4 107/127/4
f 109/114/3 108/113/3 119/144/3 117/145/3
f 108/113/3 115/117/3 118/143/3 119/144/3
f 114/129/3 109/114/3 117/145/3 116/142/3
f 121/146/4 123/147/4 122/148/4 120/149/4
f 116/139/3 117/150/3 121/151/3 120/140/3
f 117/150/18 119/152/18 123/153/18 121/151/18
f 119/152/1 118/138/1 122/141/1 123/153/1
f 124/154/1 137/155/1 138/156/1 125/157/1
f 153/158/4 154/159/4 151/160/4 152/161/4
f 127/162/3 139/163/3 131/164/3 128/165/3
f 128/165/2 131/164/2 132/166/2 129/167/2
f 140/168/4 150/169/4 149/170/4 136/171/4
f 136/171/4 149/170/4 156/172/4 145/173/4 146/174/4 139/163/4
f 132/166/2 141/175/2 142/176/2 137/155/2
f 125/157/4 138/156/4 140/168/4 143/177/4 133/178/4 130/179/4
f 129/167/2 132/166/2 137/155/2 124/154/2
f 126/180/4 135/181/4 134/182/4 136/171/4 139/163/4 127/162/4
f 130/179/4 133/178/4 135/181/4 126/180/4
f 144/183/14 142/176/14 141/175/14 148/184/14
f 141/175/14 145/173/14 148/184/14
f 145/173/14 141/175/14 147/185/14 146/174/14
f 131/164/2 147/185/2 141/175/2 132/166/2
f 139/163/3 146/174/3 147/185/3 131/164/3
f 137/155/1 142/176/1 144/183/1 138/156/1
f 138/156/4 144/183/4 148/184/4 155/186/4 150/169/4 140/168/4
f 133/187/19 153/188/19 152/189/19 135/190/19
f 143/177/4 140/168/4 136/171/4 134/182/4
f 143/191/1 154/192/1 153/188/1 133/187/1
f 135/190/3 152/189/3 151/193/3 134/194/3
f 134/194/20 151/193/20 154/192/20 143/191/20
f 159/195/21 163/196/21 161/197/21 157/198/21
f 156/172/3 159/199/3 157/200/3 155/186/3
f 155/186/4 148/184/4 145/173/4 156/172/4
f 150/169/3 158/201/3 160/202/3 149/170/3
f 149/170/3 160/202/3 159/199/3 156/172/3
f 155/186/3 157/200/3 158/201/3 150/169/3
f 162/203/4 161/204/4 163/205/4 164/206/4
f 157/198/1 161/197/1 162/207/1 158/208/1
f 158/208/22 162/207/22 164/209/22 160/210/22
f 160/210/3 164/209/3 163/196/3 159/195/3
